<svg width="25" height="25" viewBox="0 0 25 25" fill="none" xmlns="http://www.w3.org/2000/svg">
<path d="M24.9992 18.7173V22.4808C25.0006 22.8302 24.9289 23.176 24.7887 23.4961C24.6484 23.8163 24.4428 24.1036 24.1848 24.3398C23.9268 24.576 23.6223 24.7558 23.2907 24.8678C22.959 24.9797 22.6076 25.0213 22.259 24.9898C18.391 24.5704 14.6755 23.2513 11.4111 21.1385C8.37402 19.2124 5.79908 16.6426 3.86917 13.6115C1.74483 10.3387 0.422802 6.6126 0.0102026 2.73494C-0.021209 2.38803 0.0201014 2.03839 0.131503 1.70828C0.242905 1.37818 0.421957 1.07484 0.65726 0.817582C0.892563 0.560324 1.17896 0.354781 1.49822 0.214042C1.81748 0.0733025 2.1626 0.000449653 2.51162 0.000121627H6.2826C6.89263 -0.00587044 7.48402 0.209722 7.94656 0.606715C8.40909 1.00371 8.71121 1.55501 8.79659 2.15787C8.95575 3.36227 9.25093 4.54484 9.67648 5.68302C9.8456 6.13204 9.8822 6.62003 9.78195 7.08917C9.6817 7.55831 9.44879 7.98893 9.11083 8.33002L7.51445 9.92324C9.30385 13.0639 11.9095 15.6644 15.0564 17.4503L16.6528 15.857C16.9946 15.5197 17.426 15.2873 17.8961 15.1872C18.3662 15.0872 18.8551 15.1237 19.305 15.2925C20.4455 15.7172 21.6304 16.0118 22.8372 16.1707C23.4478 16.2566 24.0055 16.5636 24.4041 17.0331C24.8027 17.5027 25.0145 18.1021 24.9992 18.7173Z" fill="#3F3F3F"/>
</svg>
