<svg width="158" height="57" viewBox="0 0 158 57" fill="none" xmlns="http://www.w3.org/2000/svg">
<path d="M11.704 45.191C12.016 45.239 12.496 45.263 12.772 45.263H19.336C19.708 45.263 20.092 45.239 20.416 45.191V46.511C20.08 46.475 19.684 46.463 19.336 46.463H16.612V51.707H19.996C20.38 51.707 20.728 51.659 21.04 51.623V53.003C20.716 52.955 20.248 52.943 19.996 52.943H12.076C11.728 52.943 11.344 52.955 10.96 53.003V51.623C11.32 51.683 11.728 51.707 12.076 51.707H15.304V46.463H12.772C12.508 46.463 12.016 46.475 11.704 46.511V45.191ZM31.78 45.299C31.696 45.419 31.516 45.719 31.432 45.923C31.012 46.907 30.304 48.263 29.464 49.343C30.7 50.399 32.152 51.947 32.896 52.859L31.84 53.795C31.048 52.715 29.848 51.395 28.66 50.291C27.376 51.659 25.756 52.943 24.04 53.747L23.068 52.727C25.012 51.983 26.812 50.543 28 49.211C28.816 48.299 29.62 46.979 29.908 46.043H25.504C25.036 46.043 24.388 46.103 24.196 46.115V44.759C24.436 44.795 25.132 44.843 25.504 44.843H29.956C30.4 44.843 30.796 44.795 31 44.723L31.78 45.299ZM45.304 45.263C45.196 45.395 45.004 45.623 44.908 45.767C44.392 46.643 43.252 48.167 41.968 49.079L40.972 48.275C42.028 47.663 43.072 46.475 43.42 45.791H36.844C36.364 45.791 35.944 45.827 35.428 45.863V44.531C35.872 44.591 36.364 44.639 36.844 44.639H43.552C43.816 44.639 44.356 44.603 44.548 44.555L45.304 45.263ZM40.456 46.859C40.456 49.991 40.276 52.295 37.12 53.915L36.016 53.015C36.364 52.895 36.784 52.703 37.168 52.427C38.884 51.323 39.16 49.811 39.16 47.819C39.16 47.495 39.148 47.207 39.088 46.859H40.456ZM48.3155 44.435C49.1555 44.999 50.7155 46.247 51.3875 46.943L50.4395 47.915C49.8155 47.279 48.3275 45.971 47.4395 45.371L48.3155 44.435ZM47.0795 52.463C49.0835 52.163 50.6435 51.491 51.7955 50.783C53.7275 49.595 55.2275 47.795 55.9595 46.259L56.6915 47.567C55.8275 49.127 54.3515 50.759 52.4795 51.911C51.2675 52.655 49.7435 53.363 47.8835 53.699L47.0795 52.463ZM65.5235 44.615C65.8475 45.083 66.3515 45.863 66.6155 46.427L65.7755 46.799C65.4635 46.115 65.1275 45.539 64.7195 44.963L65.5235 44.615ZM67.0355 43.991C67.3595 44.435 67.8755 45.215 68.1635 45.755L67.3355 46.163C66.9875 45.479 66.6515 44.927 66.2315 44.363L67.0355 43.991ZM61.0715 52.439V45.503C61.0715 45.119 61.0355 44.555 60.9635 44.159H62.4395C62.4035 44.555 62.3435 45.071 62.3435 45.503C62.3435 45.947 62.3435 46.619 62.3435 47.375C63.9275 47.843 66.2315 48.707 67.4195 49.295L66.8915 50.591C65.6195 49.919 63.6635 49.163 62.3435 48.731C62.3555 50.387 62.3555 52.043 62.3555 52.439C62.3555 52.811 62.3915 53.543 62.4395 53.975H60.9755C61.0355 53.555 61.0715 52.895 61.0715 52.439ZM72.0275 44.351C72.3875 44.399 72.8075 44.435 73.1915 44.435H78.0395C78.4115 44.435 78.8555 44.399 79.2395 44.351V45.587C78.8555 45.563 78.4115 45.551 78.0395 45.551H73.2035C72.8075 45.551 72.3635 45.563 72.0275 45.587V44.351ZM70.6115 47.399C70.9475 47.435 71.3315 47.459 71.7035 47.459H79.5515C79.8035 47.459 80.2595 47.435 80.5595 47.399V48.635C80.2835 48.611 79.8635 48.599 79.5515 48.599H76.4675C76.4195 49.871 76.1795 50.927 75.7235 51.803C75.2915 52.619 74.3795 53.507 73.3355 54.035L72.2315 53.231C73.1195 52.859 73.9715 52.175 74.4515 51.443C74.9675 50.639 75.1235 49.679 75.1715 48.599H71.7035C71.3435 48.599 70.9355 48.611 70.6115 48.635V47.399ZM82.1847 50.135C83.7567 49.775 85.5327 48.959 86.5047 48.371C87.6447 47.663 88.7967 46.643 89.4207 45.875L90.3567 46.787C89.7567 47.423 88.7247 48.287 87.6567 48.995V53.207C87.6567 53.591 87.6687 54.155 87.7167 54.359H86.3247C86.3487 54.155 86.3727 53.591 86.3727 53.207V49.751C85.3407 50.291 83.9607 50.879 82.7607 51.263L82.1847 50.135ZM102.057 43.679C102.357 44.111 102.789 44.855 103.029 45.323L102.237 45.659C101.997 45.179 101.613 44.459 101.289 44.003L102.057 43.679ZM103.413 43.163C103.737 43.607 104.193 44.363 104.409 44.795L103.629 45.143C103.377 44.627 102.981 43.943 102.645 43.487L103.413 43.163ZM99.0087 44.327C98.7687 44.687 98.5167 45.143 98.3847 45.383C98.3247 45.491 98.2767 45.587 98.2047 45.695H101.097C101.433 45.695 101.769 45.647 101.997 45.575L102.981 46.175C102.861 46.367 102.729 46.667 102.645 46.907C102.321 48.059 101.613 49.667 100.533 50.987C99.4287 52.343 97.9767 53.447 95.7327 54.311L94.6167 53.303C96.9327 52.619 98.3607 51.551 99.4287 50.315C100.317 49.295 101.037 47.783 101.253 46.775H97.4967C96.7407 47.807 95.7087 48.863 94.4607 49.703L93.4047 48.923C95.4927 47.663 96.6087 46.007 97.1727 44.951C97.3167 44.699 97.5207 44.219 97.6167 43.871L99.0087 44.327ZM110.985 53.111C111.033 52.907 111.069 52.631 111.069 52.355V45.251C111.069 44.759 110.997 44.363 110.997 44.291H112.389C112.377 44.363 112.329 44.759 112.329 45.251V51.887C113.373 51.419 114.729 50.399 115.593 49.127L116.325 50.159C115.305 51.515 113.613 52.775 112.233 53.471C112.017 53.591 111.873 53.699 111.777 53.771L110.985 53.111ZM105.453 53.003C106.497 52.283 107.181 51.191 107.529 50.087C107.877 49.019 107.877 46.679 107.877 45.299C107.877 44.891 107.853 44.603 107.781 44.327H109.173C109.161 44.423 109.113 44.867 109.113 45.287C109.113 46.655 109.065 49.211 108.741 50.411C108.381 51.731 107.625 52.907 106.605 53.771L105.453 53.003ZM117.969 48.023C118.365 48.047 119.109 48.095 119.757 48.095H126.285C126.861 48.095 127.329 48.047 127.629 48.023V49.511C127.365 49.499 126.813 49.451 126.285 49.451H119.757C119.097 49.451 118.377 49.475 117.969 49.511V48.023ZM137.75 44.675C137.75 45.083 138.086 45.419 138.494 45.419C138.902 45.419 139.25 45.083 139.25 44.675C139.25 44.267 138.902 43.919 138.494 43.919C138.086 43.919 137.75 44.267 137.75 44.675ZM137.114 44.675C137.114 43.919 137.726 43.295 138.494 43.295C139.262 43.295 139.886 43.919 139.886 44.675C139.886 45.443 139.262 46.055 138.494 46.055C138.386 46.055 138.278 46.043 138.17 46.019C138.158 46.091 138.134 46.175 138.122 46.247C137.846 47.471 137.294 49.367 136.322 50.651C135.23 52.067 133.73 53.219 131.558 53.903L130.526 52.775C132.866 52.199 134.222 51.167 135.218 49.919C136.034 48.863 136.55 47.327 136.718 46.235H130.814C130.31 46.235 129.83 46.259 129.518 46.283V44.939C129.854 44.975 130.418 45.023 130.814 45.023H136.634C136.778 45.023 136.958 45.023 137.15 44.999C137.126 44.891 137.114 44.783 137.114 44.675Z" fill="#426F63"/>
<g clip-path="url(#clip0_2730_1048)">
<path d="M79.3348 16.3432H71.2744C71.1869 16.3432 71.1212 16.4155 71.1212 16.5015V19.2646C71.1212 19.355 71.1912 19.4228 71.2744 19.4228H75.9741V26.9705C75.8122 27.0293 75.6284 27.0835 75.4271 27.1333C75.182 27.1966 74.9282 27.2463 74.6657 27.2915C74.4031 27.3368 74.145 27.3684 73.8737 27.391C73.6155 27.4136 73.3704 27.4272 73.1429 27.4272C71.9789 27.4589 70.8193 27.2373 69.7384 26.7805C68.8283 26.3735 68.0318 25.7404 67.4236 24.9309C66.7847 24.0491 66.3296 23.0361 66.089 21.9643C65.787 20.6529 65.6426 19.3098 65.6557 17.9622C65.6426 16.6417 65.822 15.3257 66.1852 14.064C66.5003 12.9696 67.0123 11.9521 67.7037 11.0657C68.36 10.2427 69.1915 9.58695 70.1323 9.14377C71.1737 8.67346 72.2983 8.44282 73.4317 8.46091C74.4513 8.45187 75.4621 8.58754 76.4467 8.85887C77.3831 9.1302 78.2845 9.51007 79.1422 9.98491C79.1903 10.012 79.2472 10.012 79.2954 9.98491C79.3435 9.95778 79.3698 9.90351 79.3698 9.84924V6.52087C79.3698 6.45756 79.3347 6.40329 79.2822 6.37616C78.3852 5.94654 77.4444 5.62999 76.4729 5.43553C75.4577 5.23655 74.4294 5.13706 73.3967 5.14158C71.8039 5.12349 70.2242 5.42196 68.7451 6.02794C67.3667 6.59775 66.1327 7.47959 65.1219 8.60562C64.0804 9.7995 63.2884 11.2014 62.7895 12.7209C62.2163 14.4845 61.9362 16.3387 61.9625 18.1973C61.9319 20.0288 62.1857 21.8558 62.7064 23.6059C63.144 25.0576 63.8748 26.3916 64.8506 27.5267C65.787 28.5804 66.9466 29.3944 68.2375 29.9099C69.6597 30.4616 71.1694 30.733 72.6878 30.7104C73.2479 30.7104 73.8036 30.6787 74.3594 30.6154C74.9414 30.5521 75.519 30.4571 76.0922 30.3305C76.6698 30.2039 77.2387 30.0456 77.7988 29.8557C78.3414 29.6702 78.8709 29.4577 79.3873 29.209C79.4441 29.1818 79.4792 29.1276 79.4792 29.0643V16.506C79.4792 16.4155 79.4091 16.3477 79.326 16.3477L79.3348 16.3432Z" fill="#426E63"/>
<path d="M95.9281 22.0504C95.5299 21.2003 95.0442 20.3908 94.484 19.6446C94.1208 19.1743 93.6658 18.7944 93.145 18.5276C93.7752 18.3422 94.3746 18.0709 94.9348 17.7181C95.5605 17.3247 96.1162 16.8227 96.5757 16.2348C97.0177 15.665 97.3546 15.0184 97.5734 14.3265C97.801 13.6074 97.9104 12.8612 97.9104 12.106C97.9191 11.1835 97.766 10.27 97.4553 9.40625C97.1533 8.59224 96.6545 7.86869 96.0112 7.3034C95.2761 6.67933 94.4228 6.22259 93.5082 5.95578C92.3355 5.61661 91.119 5.45381 89.8981 5.48094H83.5312C83.4437 5.48094 83.3781 5.5533 83.3781 5.63922V30.2086C83.3781 30.299 83.4481 30.3669 83.5312 30.3669H86.7694C86.8569 30.3669 86.9225 30.2945 86.9225 30.2086V19.4275H88.2965C88.7166 19.4275 89.1323 19.4728 89.5393 19.5723C89.8981 19.6672 90.2394 19.8255 90.5457 20.0471C90.8783 20.2958 91.1715 20.6033 91.4078 20.9515C91.7229 21.4128 91.9898 21.9057 92.213 22.4168L95.7574 30.2764C95.7837 30.3307 95.8362 30.3669 95.8975 30.3669H99.5557C99.6432 30.3669 99.7088 30.2945 99.7088 30.2041C99.7088 30.1814 99.7045 30.1588 99.6957 30.1362L95.9281 22.0504ZM86.9225 8.61938H89.8237C91.224 8.61938 92.3224 8.93594 93.0838 9.56001C93.8364 10.175 94.2171 11.1292 94.2171 12.3864C94.2259 12.9788 94.1121 13.5712 93.8758 14.1139C93.6526 14.6023 93.3244 15.0364 92.9175 15.3711C92.4711 15.7329 91.9548 15.9952 91.4078 16.1489C90.747 16.3343 90.0688 16.4248 89.3861 16.4157H86.9225V8.61938Z" fill="#426E63"/>
<path d="M116.827 8.54251C116.079 7.47074 115.09 6.60247 113.944 6.0191C112.675 5.40859 111.283 5.1056 109.883 5.13726C108.618 5.13274 107.367 5.39503 106.203 5.91056C105.021 6.44419 103.975 7.25819 103.153 8.28474C102.221 9.47862 101.521 10.8443 101.096 12.3141C100.562 14.1727 100.308 16.1037 100.343 18.0392C100.326 19.8119 100.51 21.5847 100.895 23.3122C101.205 24.7412 101.779 26.0979 102.584 27.3053C103.323 28.3816 104.312 29.2499 105.463 29.8287C106.737 30.4347 108.124 30.7332 109.524 30.7015C110.793 30.7015 112.049 30.4438 113.213 29.9282C114.399 29.3946 115.449 28.5806 116.272 27.554C117.204 26.3602 117.908 24.9944 118.337 23.5247C118.88 21.657 119.138 19.7125 119.098 17.7588C119.116 15.9952 118.928 14.2315 118.538 12.513C118.219 11.0885 117.641 9.73638 116.832 8.53799L116.827 8.54251ZM109.699 27.4726C108.789 27.4998 107.892 27.2601 107.109 26.7807C106.373 26.2969 105.769 25.6276 105.354 24.8362C104.859 23.8865 104.518 22.8645 104.343 21.8017C104.115 20.4993 104.01 19.1788 104.019 17.8538C104.015 16.6102 104.129 15.3711 104.36 14.1546C104.553 13.1009 104.903 12.0834 105.398 11.1383C105.822 10.3333 106.426 9.64142 107.157 9.12588C107.914 8.62391 108.798 8.36614 109.699 8.39328C110.618 8.36614 111.524 8.60582 112.32 9.08518C113.064 9.56906 113.672 10.2429 114.092 11.0388C114.591 11.9885 114.933 13.015 115.103 14.0823C115.322 15.3801 115.427 16.6916 115.418 18.0121C115.423 19.2557 115.309 20.4993 115.077 21.7203C114.884 22.774 114.53 23.787 114.031 24.7276C113.602 25.5326 112.99 26.2245 112.25 26.74C111.489 27.242 110.6 27.4998 109.699 27.4772V27.4726Z" fill="#426E63"/>
<path d="M138.16 5.48096H134.922C134.834 5.48096 134.768 5.55331 134.768 5.63924V21.8605C134.768 23.683 134.366 25.1075 133.578 26.1024C132.795 27.0883 131.552 27.5857 129.889 27.5857C129.115 27.6083 128.34 27.4817 127.605 27.2194C127.027 27.0023 126.516 26.636 126.113 26.1567C125.71 25.6457 125.426 25.0442 125.282 24.3975C125.098 23.579 125.01 22.7378 125.023 21.8967V5.63924C125.023 5.54879 124.953 5.48096 124.87 5.48096H121.632C121.545 5.48096 121.479 5.55331 121.479 5.63924V22.1635C121.466 23.3438 121.619 24.5151 121.93 25.6502C122.21 26.6541 122.704 27.5767 123.382 28.3545C124.096 29.1368 124.98 29.7383 125.96 30.0955C127.189 30.5342 128.48 30.7377 129.78 30.706C131.018 30.7287 132.252 30.5116 133.412 30.0639C134.423 29.6659 135.342 29.0419 136.094 28.2414C136.843 27.4229 137.411 26.4506 137.757 25.3834C138.147 24.1804 138.335 22.9233 138.322 21.657V5.63924C138.322 5.54879 138.252 5.48096 138.168 5.48096H138.16Z" fill="#426E63"/>
<path d="M157.252 9.60523C156.775 8.65556 156.092 7.83703 155.248 7.21749C154.372 6.58437 153.388 6.13215 152.346 5.88795C151.226 5.61209 150.08 5.47642 148.929 5.48094H142.234C142.146 5.48094 142.081 5.5533 142.081 5.63922V30.2086C142.081 30.2945 142.151 30.3669 142.234 30.3669H145.472C145.559 30.3669 145.625 30.2945 145.625 30.2086V21.553H148.417C149.887 21.5892 151.349 21.3359 152.731 20.8204C153.839 20.3953 154.854 19.7396 155.711 18.8939C156.468 18.1342 157.059 17.2117 157.44 16.1941C157.803 15.2264 157.991 14.1953 157.996 13.1552C158.031 11.9251 157.772 10.7041 157.252 9.60071V9.60523ZM145.629 8.57868H148.784C150.535 8.57868 151.913 8.99021 152.88 9.80421C153.838 10.6092 154.324 11.7895 154.324 13.309C154.324 15.0048 153.821 16.2846 152.828 17.1122C151.826 17.9488 150.368 18.3739 148.496 18.3739H145.629V8.58321V8.57868Z" fill="#426E63"/>
<path d="M7.11518 30.3126C4.58592 30.3126 1.76786 29.5393 0.258177 28.4314L0 28.2414L1.11147 24.7955L1.57532 25.112C3.29504 26.2109 5.27731 26.7943 7.29897 26.8034C10.664 26.8034 12.7557 25.0035 12.7557 22.1002C12.7557 19.4909 11.4035 17.9126 7.93785 16.4655C3.11125 14.6023 0.660758 11.7488 0.660758 7.98629C0.660758 3.28315 4.31462 0 9.54818 0C11.8543 0 14.0553 0.529103 15.4425 1.41999L15.7357 1.60992L14.5279 5.05135L14.0772 4.7574C12.6682 3.92079 11.0666 3.49117 9.43878 3.51379C5.83743 3.51379 4.55967 5.70255 4.55967 7.57476C4.55967 9.98512 5.85056 11.3599 9.67508 13.0241C14.5936 15.1721 16.694 17.8086 16.694 21.8379C16.694 26.9888 12.9351 30.3126 7.11081 30.3126H7.11518Z" fill="#426E63"/>
<path d="M27.2661 30.9955C22.3564 30.9955 19.7834 27.2872 19.7834 23.6242C19.7834 20.5807 21.2799 18.0664 24.2293 16.1444C23.0172 14.3717 22.3783 12.5583 22.3783 10.8715C22.3783 7.66067 24.5006 4.4137 28.5614 4.4137C31.7383 4.4137 33.9569 6.72004 33.9569 10.0213C33.9569 12.816 32.4297 14.8782 28.8721 16.868C30.5349 18.9346 32.5872 21.4309 34.2851 23.4569C35.1384 21.8017 35.7597 19.5723 36.1798 16.6599L36.2323 16.2846H39.5361L39.4574 16.7956C38.8053 20.9109 37.7989 23.796 36.3067 25.8265C37.3963 27.043 38.5078 28.2866 39.8906 29.8694L40.5338 30.6065H36.2192L36.0923 30.4618C35.6022 29.9101 35.134 29.3901 34.5257 28.7253L34.11 28.2685C32.2503 30.0503 29.7998 31.0316 27.2661 31V30.9955ZM25.9228 18.4553C24.1155 19.7712 23.201 21.3721 23.201 23.2308C23.201 26.0074 25.0957 28.0243 27.7081 28.0243C29.4147 28.0289 31.0513 27.3098 32.2328 26.0391C31.7952 25.5145 31.2788 24.8995 30.71 24.2211C29.3228 22.5705 27.6075 20.5355 25.9184 18.4598L25.9228 18.4553ZM28.312 7.25367C26.4872 7.25367 25.6689 8.93594 25.6689 10.6047C25.6689 12.1467 26.2597 13.3768 27.1655 14.7018C29.3184 13.3949 30.7318 12.097 30.7318 10.1796C30.7318 8.83193 30.0973 7.25367 28.312 7.25367Z" fill="#426E63"/>
<path d="M48.3973 29.9011H44.529V3.96147H36.3942V0.452209H56.5714V3.96147H48.3973V29.9011Z" fill="#426E63"/>
</g>
<defs>
<clipPath id="clip0_2730_1048">
<rect width="158" height="31" fill="white"/>
</clipPath>
</defs>
</svg>
