<svg width="258" height="26" viewBox="0 0 258 26" fill="none" xmlns="http://www.w3.org/2000/svg">
<path d="M128.704 14.816C129.016 14.864 129.496 14.888 129.772 14.888H136.336C136.708 14.888 137.092 14.864 137.416 14.816V16.136C137.08 16.1 136.684 16.088 136.336 16.088H133.612V21.332H136.996C137.38 21.332 137.728 21.284 138.04 21.248V22.628C137.716 22.58 137.248 22.568 136.996 22.568H129.076C128.728 22.568 128.344 22.58 127.96 22.628V21.248C128.32 21.308 128.728 21.332 129.076 21.332H132.304V16.088H129.772C129.508 16.088 129.016 16.1 128.704 16.136V14.816ZM148.78 14.924C148.696 15.044 148.516 15.344 148.432 15.548C148.012 16.532 147.304 17.888 146.464 18.968C147.7 20.024 149.152 21.572 149.896 22.484L148.84 23.42C148.048 22.34 146.848 21.02 145.66 19.916C144.376 21.284 142.756 22.568 141.04 23.372L140.068 22.352C142.012 21.608 143.812 20.168 145 18.836C145.816 17.924 146.62 16.604 146.908 15.668H142.504C142.036 15.668 141.388 15.728 141.196 15.74V14.384C141.436 14.42 142.132 14.468 142.504 14.468H146.956C147.4 14.468 147.796 14.42 148 14.348L148.78 14.924ZM162.304 14.888C162.196 15.02 162.004 15.248 161.908 15.392C161.392 16.268 160.252 17.792 158.968 18.704L157.972 17.9C159.028 17.288 160.072 16.1 160.42 15.416H153.844C153.364 15.416 152.944 15.452 152.428 15.488V14.156C152.872 14.216 153.364 14.264 153.844 14.264H160.552C160.816 14.264 161.356 14.228 161.548 14.18L162.304 14.888ZM157.456 16.484C157.456 19.616 157.276 21.92 154.12 23.54L153.016 22.64C153.364 22.52 153.784 22.328 154.168 22.052C155.884 20.948 156.16 19.436 156.16 17.444C156.16 17.12 156.148 16.832 156.088 16.484H157.456ZM165.316 14.06C166.156 14.624 167.716 15.872 168.388 16.568L167.44 17.54C166.816 16.904 165.328 15.596 164.44 14.996L165.316 14.06ZM164.08 22.088C166.084 21.788 167.644 21.116 168.796 20.408C170.728 19.22 172.228 17.42 172.96 15.884L173.692 17.192C172.828 18.752 171.352 20.384 169.48 21.536C168.268 22.28 166.744 22.988 164.884 23.324L164.08 22.088ZM182.524 14.24C182.848 14.708 183.352 15.488 183.616 16.052L182.776 16.424C182.464 15.74 182.128 15.164 181.72 14.588L182.524 14.24ZM184.036 13.616C184.36 14.06 184.876 14.84 185.164 15.38L184.336 15.788C183.988 15.104 183.652 14.552 183.232 13.988L184.036 13.616ZM178.072 22.064V15.128C178.072 14.744 178.036 14.18 177.964 13.784H179.44C179.404 14.18 179.344 14.696 179.344 15.128C179.344 15.572 179.344 16.244 179.344 17C180.928 17.468 183.232 18.332 184.42 18.92L183.892 20.216C182.62 19.544 180.664 18.788 179.344 18.356C179.356 20.012 179.356 21.668 179.356 22.064C179.356 22.436 179.392 23.168 179.44 23.6H177.976C178.036 23.18 178.072 22.52 178.072 22.064ZM189.028 13.976C189.388 14.024 189.808 14.06 190.192 14.06H195.04C195.412 14.06 195.856 14.024 196.24 13.976V15.212C195.856 15.188 195.412 15.176 195.04 15.176H190.204C189.808 15.176 189.364 15.188 189.028 15.212V13.976ZM187.612 17.024C187.948 17.06 188.332 17.084 188.704 17.084H196.552C196.804 17.084 197.26 17.06 197.56 17.024V18.26C197.284 18.236 196.864 18.224 196.552 18.224H193.468C193.42 19.496 193.18 20.552 192.724 21.428C192.292 22.244 191.38 23.132 190.336 23.66L189.232 22.856C190.12 22.484 190.972 21.8 191.452 21.068C191.968 20.264 192.124 19.304 192.172 18.224H188.704C188.344 18.224 187.936 18.236 187.612 18.26V17.024ZM199.185 19.76C200.757 19.4 202.533 18.584 203.505 17.996C204.645 17.288 205.797 16.268 206.421 15.5L207.357 16.412C206.757 17.048 205.725 17.912 204.657 18.62V22.832C204.657 23.216 204.669 23.78 204.717 23.984H203.325C203.349 23.78 203.373 23.216 203.373 22.832V19.376C202.341 19.916 200.961 20.504 199.761 20.888L199.185 19.76ZM219.057 13.304C219.357 13.736 219.789 14.48 220.029 14.948L219.237 15.284C218.997 14.804 218.613 14.084 218.289 13.628L219.057 13.304ZM220.413 12.788C220.737 13.232 221.193 13.988 221.409 14.42L220.629 14.768C220.377 14.252 219.981 13.568 219.645 13.112L220.413 12.788ZM216.009 13.952C215.769 14.312 215.517 14.768 215.385 15.008C215.325 15.116 215.277 15.212 215.205 15.32H218.097C218.433 15.32 218.769 15.272 218.997 15.2L219.981 15.8C219.861 15.992 219.729 16.292 219.645 16.532C219.321 17.684 218.613 19.292 217.533 20.612C216.429 21.968 214.977 23.072 212.733 23.936L211.617 22.928C213.933 22.244 215.361 21.176 216.429 19.94C217.317 18.92 218.037 17.408 218.253 16.4H214.497C213.741 17.432 212.709 18.488 211.461 19.328L210.405 18.548C212.493 17.288 213.609 15.632 214.173 14.576C214.317 14.324 214.521 13.844 214.617 13.496L216.009 13.952ZM227.985 22.736C228.033 22.532 228.069 22.256 228.069 21.98V14.876C228.069 14.384 227.997 13.988 227.997 13.916H229.389C229.377 13.988 229.329 14.384 229.329 14.876V21.512C230.373 21.044 231.729 20.024 232.593 18.752L233.325 19.784C232.305 21.14 230.613 22.4 229.233 23.096C229.017 23.216 228.873 23.324 228.777 23.396L227.985 22.736ZM222.453 22.628C223.497 21.908 224.181 20.816 224.529 19.712C224.877 18.644 224.877 16.304 224.877 14.924C224.877 14.516 224.853 14.228 224.781 13.952H226.173C226.161 14.048 226.113 14.492 226.113 14.912C226.113 16.28 226.065 18.836 225.741 20.036C225.381 21.356 224.625 22.532 223.605 23.396L222.453 22.628ZM234.969 17.648C235.365 17.672 236.109 17.72 236.757 17.72H243.285C243.861 17.72 244.329 17.672 244.629 17.648V19.136C244.365 19.124 243.813 19.076 243.285 19.076H236.757C236.097 19.076 235.377 19.1 234.969 19.136V17.648ZM254.75 14.3C254.75 14.708 255.086 15.044 255.494 15.044C255.902 15.044 256.25 14.708 256.25 14.3C256.25 13.892 255.902 13.544 255.494 13.544C255.086 13.544 254.75 13.892 254.75 14.3ZM254.114 14.3C254.114 13.544 254.726 12.92 255.494 12.92C256.262 12.92 256.886 13.544 256.886 14.3C256.886 15.068 256.262 15.68 255.494 15.68C255.386 15.68 255.278 15.668 255.17 15.644C255.158 15.716 255.134 15.8 255.122 15.872C254.846 17.096 254.294 18.992 253.322 20.276C252.23 21.692 250.73 22.844 248.558 23.528L247.526 22.4C249.866 21.824 251.222 20.792 252.218 19.544C253.034 18.488 253.55 16.952 253.718 15.86H247.814C247.31 15.86 246.83 15.884 246.518 15.908V14.564C246.854 14.6 247.418 14.648 247.814 14.648H253.634C253.778 14.648 253.958 14.648 254.15 14.624C254.126 14.516 254.114 14.408 254.114 14.3Z" fill="#426F63"/>
<g clip-path="url(#clip0_2701_2267)">
<path d="M60.7564 12.6528H54.5835C54.5165 12.6528 54.4662 12.7088 54.4662 12.7753V14.9145C54.4662 14.9845 54.5199 15.037 54.5835 15.037H58.1827V20.8804C58.0587 20.9259 57.9179 20.9679 57.7638 21.0064C57.5761 21.0554 57.3818 21.0939 57.1807 21.1289C56.9796 21.1639 56.7819 21.1885 56.5741 21.206C56.3764 21.2235 56.1887 21.234 56.0145 21.234C55.1231 21.2585 54.235 21.0869 53.4073 20.7333C52.7102 20.4182 52.1003 19.9281 51.6345 19.3014C51.1453 18.6187 50.7967 17.8344 50.6124 17.0046C50.3812 15.9893 50.2706 14.9495 50.2807 13.9062C50.2706 12.8839 50.408 11.865 50.6861 10.8882C50.9274 10.041 51.3195 9.25323 51.849 8.56701C52.3517 7.92981 52.9884 7.42216 53.7089 7.07905C54.5065 6.71493 55.3677 6.53638 56.2357 6.55038C57.0165 6.54338 57.7906 6.64841 58.5446 6.85848C59.2617 7.06855 59.9521 7.36264 60.6089 7.73025C60.6458 7.75126 60.6893 7.75126 60.7262 7.73025C60.7631 7.70925 60.7832 7.66723 60.7832 7.62522V5.04841C60.7832 4.9994 60.7564 4.95739 60.7161 4.93638C60.0292 4.60378 59.3087 4.3587 58.5647 4.20815C57.7872 4.0541 56.9997 3.97708 56.2088 3.98058C54.989 3.96658 53.7793 4.19765 52.6466 4.6668C51.591 5.10793 50.6459 5.79065 49.8718 6.66242C49.0742 7.58671 48.4677 8.67205 48.0857 9.84841C47.6467 11.2138 47.4322 12.6493 47.4523 14.0882C47.4288 15.5062 47.6232 16.9206 48.022 18.2755C48.3571 19.3994 48.9167 20.4322 49.664 21.311C50.3812 22.1267 51.2692 22.7569 52.2578 23.1561C53.347 23.5832 54.5031 23.7933 55.666 23.7758C56.0949 23.7758 56.5205 23.7513 56.9461 23.7022C57.3918 23.6532 57.8342 23.5797 58.2732 23.4817C58.7155 23.3836 59.1512 23.2611 59.5801 23.1141C59.9956 22.9705 60.4011 22.806 60.7966 22.6134C60.8401 22.5924 60.8669 22.5504 60.8669 22.5014V12.7788C60.8669 12.7088 60.8133 12.6563 60.7497 12.6563L60.7564 12.6528Z" fill="#426E63"/>
<path d="M73.4639 17.0713C73.159 16.4131 72.787 15.7864 72.358 15.2087C72.0799 14.8446 71.7314 14.5505 71.3326 14.344C71.8152 14.2004 72.2743 13.9904 72.7032 13.7173C73.1824 13.4127 73.608 13.0241 73.9599 12.5689C74.2984 12.1278 74.5564 11.6271 74.724 11.0915C74.8982 10.5348 74.982 9.9571 74.982 9.37242C74.9887 8.65819 74.8714 7.95097 74.6335 7.28226C74.4022 6.65207 74.0202 6.09189 73.5276 5.65425C72.9646 5.1711 72.3111 4.81749 71.6107 4.61093C70.7126 4.34835 69.781 4.22231 68.846 4.24331H63.9701C63.9031 4.24331 63.8528 4.29933 63.8528 4.36585V23.3873C63.8528 23.4573 63.9064 23.5098 63.9701 23.5098H66.45C66.517 23.5098 66.5673 23.4538 66.5673 23.3873V15.0407H67.6195C67.9412 15.0407 68.2596 15.0757 68.5712 15.1527C68.846 15.2262 69.1074 15.3488 69.342 15.5203C69.5967 15.7129 69.8212 15.951 70.0022 16.2206C70.2435 16.5777 70.4479 16.9593 70.6188 17.3549L73.3332 23.4398C73.3533 23.4818 73.3935 23.5098 73.4405 23.5098H76.242C76.309 23.5098 76.3593 23.4538 76.3593 23.3838C76.3593 23.3663 76.356 23.3488 76.3493 23.3313L73.4639 17.0713ZM66.5673 6.67307H68.7891C69.8614 6.67307 70.7026 6.91815 71.2857 7.4013C71.8621 7.87745 72.1536 8.61618 72.1536 9.58948C72.1603 10.0481 72.0732 10.5068 71.8922 10.9269C71.7213 11.305 71.47 11.6411 71.1583 11.9002C70.8165 12.1803 70.4211 12.3834 70.0022 12.5024C69.4962 12.6459 68.9767 12.716 68.454 12.709H66.5673V6.67307Z" fill="#426E63"/>
<path d="M89.469 6.61356C88.896 5.7838 88.1386 5.11159 87.2606 4.65995C86.2888 4.1873 85.2231 3.95273 84.1507 3.97724C83.1823 3.97373 82.2238 4.1768 81.3324 4.57592C80.4276 4.98905 79.6267 5.61925 78.9967 6.414C78.2829 7.33829 77.7467 8.39562 77.4216 9.53347C77.0128 10.9724 76.8184 12.4674 76.8452 13.9659C76.8318 15.3383 76.9726 16.7107 77.2675 18.0481C77.5054 19.1545 77.9444 20.2048 78.561 21.1396C79.1274 21.9729 79.8847 22.6451 80.7661 23.0932C81.7413 23.5624 82.8036 23.7934 83.8759 23.7689C84.8478 23.7689 85.8096 23.5694 86.701 23.1702C87.6091 22.7571 88.4134 22.1269 89.0434 21.3322C89.7572 20.4079 90.2968 19.3505 90.6252 18.2127C91.0407 16.7667 91.2384 15.2613 91.2083 13.7488C91.2217 12.3834 91.0776 11.0179 90.7793 9.68752C90.5347 8.58468 90.0923 7.53785 89.4724 6.61006L89.469 6.61356ZM84.01 21.2691C83.313 21.2901 82.626 21.1046 82.0261 20.7335C81.4631 20.3589 81.0007 19.8407 80.6823 19.228C80.3036 18.4928 80.0422 17.7015 79.9082 16.8788C79.7339 15.8705 79.6535 14.8481 79.6602 13.8223C79.6569 12.8595 79.744 11.9002 79.9216 10.9584C80.069 10.1427 80.3371 9.35492 80.7158 8.62319C81.0409 7.99999 81.5033 7.46433 82.063 7.0652C82.6427 6.67658 83.3197 6.47702 84.01 6.49802C84.7137 6.47702 85.4074 6.66257 86.0173 7.03369C86.587 7.40831 87.0528 7.92997 87.3746 8.54616C87.7566 9.28139 88.018 10.0761 88.1487 10.9024C88.3162 11.9072 88.3967 12.9225 88.39 13.9449C88.3933 14.9077 88.3062 15.8705 88.1286 16.8157C87.9811 17.6315 87.7097 18.4157 87.3276 19.144C86.9992 19.7672 86.5301 20.3028 85.9637 20.702C85.3806 21.0906 84.7003 21.2901 84.01 21.2726V21.2691Z" fill="#426E63"/>
<path d="M105.806 4.24332H103.326C103.259 4.24332 103.209 4.29933 103.209 4.36586V16.9243C103.209 18.3352 102.9 19.4381 102.297 20.2083C101.697 20.9715 100.746 21.3567 99.4722 21.3567C98.879 21.3742 98.2859 21.2761 97.7229 21.0731C97.2805 20.905 96.8885 20.6214 96.5802 20.2503C96.2719 19.8547 96.054 19.389 95.9434 18.8884C95.8027 18.2547 95.7357 17.6035 95.7457 16.9523V4.36586C95.7457 4.29583 95.6921 4.24332 95.6284 4.24332H93.1486C93.0816 4.24332 93.0313 4.29933 93.0313 4.36586V17.1589C93.0212 18.0726 93.1385 18.9794 93.3765 19.8582C93.5909 20.6354 93.9696 21.3497 94.489 21.9519C95.0353 22.5575 95.7122 23.0232 96.4629 23.2998C97.4045 23.6394 98.3931 23.7969 99.3884 23.7724C100.337 23.7899 101.282 23.6219 102.17 23.2753C102.944 22.9672 103.648 22.484 104.224 21.8643C104.797 21.2306 105.233 20.4779 105.498 19.6516C105.796 18.7203 105.94 17.747 105.93 16.7667V4.36586C105.93 4.29583 105.876 4.24332 105.813 4.24332H105.806Z" fill="#426E63"/>
<path d="M120.427 7.43631C120.062 6.70108 119.539 6.06738 118.892 5.58773C118.222 5.09758 117.468 4.74747 116.67 4.55841C115.812 4.34484 114.934 4.23981 114.053 4.24331H108.926C108.859 4.24331 108.809 4.29933 108.809 4.36585V23.3873C108.809 23.4538 108.862 23.5098 108.926 23.5098H111.406C111.473 23.5098 111.523 23.4538 111.523 23.3873V16.6862H113.661C114.787 16.7142 115.906 16.5181 116.965 16.119C117.813 15.7899 118.591 15.2823 119.247 14.6276C119.827 14.0394 120.279 13.3251 120.571 12.5374C120.849 11.7882 120.993 10.9899 120.997 10.1847C121.023 9.23237 120.826 8.28707 120.427 7.43281V7.43631ZM111.526 6.64156H113.942C115.283 6.64156 116.339 6.96016 117.079 7.59036C117.813 8.21355 118.185 9.12734 118.185 10.3037C118.185 11.6166 117.8 12.6074 117.039 13.2481C116.272 13.8958 115.156 14.2249 113.721 14.2249H111.526V6.64506V6.64156Z" fill="#426E63"/>
<path d="M5.44897 23.4678C3.51201 23.4678 1.35386 22.8691 0.197718 22.0114L0 21.8643L0.851192 19.1965L1.20641 19.4416C2.52342 20.2923 4.04149 20.744 5.58972 20.751C8.16675 20.751 9.7686 19.3575 9.7686 17.1098C9.7686 15.0897 8.7331 13.8678 6.07899 12.7475C2.38267 11.305 0.506024 9.09584 0.506024 6.18293C0.506024 2.54179 3.30423 0 7.31221 0C9.07827 0 10.7639 0.409628 11.8262 1.09934L12.0507 1.24639L11.1258 3.91072L10.7807 3.68315C9.70158 3.03545 8.47506 2.70284 7.22843 2.72035C4.47044 2.72035 3.4919 4.41488 3.4919 5.86433C3.4919 7.73042 4.48049 8.79475 7.40939 10.0832C11.1761 11.7462 12.7846 13.7873 12.7846 16.9068C12.7846 20.8945 9.906 23.4678 5.44562 23.4678H5.44897Z" fill="#426E63"/>
<path d="M20.881 23.9965C17.121 23.9965 15.1506 21.1256 15.1506 18.2897C15.1506 15.9335 16.2966 13.9869 18.5553 12.4989C17.6271 11.1265 17.1378 9.72252 17.1378 8.41662C17.1378 5.93084 18.7631 3.41705 21.873 3.41705C24.3059 3.41705 26.0049 5.20261 26.0049 7.75841C26.0049 9.92209 24.8354 11.5186 22.1109 13.0591C23.3843 14.6591 24.956 16.5917 26.2563 18.1602C26.9097 16.8788 27.3856 15.1527 27.7073 12.898L27.7475 12.6074H30.2776L30.2173 13.003C29.718 16.189 28.9472 18.4227 27.8045 19.9947C28.6389 20.9365 29.4901 21.8993 30.5491 23.1247L31.0417 23.6954H27.7375L27.6403 23.5834C27.265 23.1562 26.9064 22.7536 26.4406 22.2389L26.1222 21.8853C24.698 23.2648 22.8213 24.0245 20.881 24V23.9965ZM19.8522 14.2879C18.4682 15.3068 17.7678 16.5462 17.7678 17.9851C17.7678 20.1348 19.2188 21.6963 21.2195 21.6963C22.5264 21.6998 23.7798 21.1431 24.6846 20.1593C24.3495 19.7532 23.954 19.277 23.5184 18.7518C22.4561 17.4739 21.1424 15.8985 19.8489 14.2914L19.8522 14.2879ZM21.6819 5.61574C20.2845 5.61574 19.6578 6.91815 19.6578 8.21005C19.6578 9.40392 20.1103 10.3562 20.8039 11.382C22.4527 10.3702 23.5351 9.36541 23.5351 7.88095C23.5351 6.83762 23.0492 5.61574 21.6819 5.61574Z" fill="#426E63"/>
<path d="M37.0637 23.1492H34.1013V3.06695H27.8715V0.350098H43.3237V3.06695H37.0637V23.1492Z" fill="#426E63"/>
</g>
<defs>
<clipPath id="clip0_2701_2267">
<rect width="121" height="24" fill="white"/>
</clipPath>
</defs>
</svg>
