<svg width="78" height="18" viewBox="0 0 78 18" fill="none" xmlns="http://www.w3.org/2000/svg">
<g clip-path="url(#clip0_2751_3)">
<path d="M50.2627 16.6255H48.9597V10.716C48.9597 8.55962 48.015 7.20982 46.0931 7.20982C44.4318 7.20982 43.0311 8.62546 43.0311 10.1563V16.6255H41.7281V10.288C41.7281 8.52669 40.816 7.20982 39.0081 7.20982C37.3631 7.20982 35.7995 8.64192 35.7995 10.3868V16.6419H34.4965V8.95468C34.4965 7.98348 34.4477 7.25921 34.4151 6.46908H35.6041L35.6855 8.21394H35.7344C36.4347 7.11106 37.526 6.22217 39.4153 6.22217C40.9789 6.22217 42.1516 7.12752 42.6402 8.37855H42.6891C43.2917 7.32505 44.3992 6.22217 46.5329 6.22217C47.7544 6.22217 50.2464 6.86414 50.2464 10.5843V16.6255H50.2627Z" fill="#447065"/>
<path d="M62.1687 11.4566C62.1687 15.2426 59.2858 16.8558 56.745 16.8558C53.7807 16.8558 51.4842 14.864 51.4842 11.6377C51.4842 8.14799 54.025 6.23853 56.8916 6.23853C60.0676 6.23853 62.1687 8.37844 62.1687 11.4566ZM56.8427 7.1768C54.0413 7.1768 52.8198 9.46486 52.8198 11.5883C52.8198 14.0081 54.5136 15.9175 56.7776 15.9175C59.0415 15.9175 60.8168 14.0081 60.8168 11.506C60.8168 9.64593 59.6767 7.1768 56.8427 7.1768Z" fill="#447065"/>
<path d="M68.6348 7.40735C68.4719 7.37443 68.2928 7.37443 68.0647 7.37443C66.1428 7.37443 65.0353 9.20159 65.0353 11.0288V16.6419H63.716V9.48143C63.716 8.46085 63.6997 7.4732 63.6346 6.45262H64.8236L64.8724 8.47731H64.9539C65.4425 7.22628 66.6477 6.22217 68.1625 6.22217C68.3253 6.22217 68.4882 6.25509 68.6511 6.27155V7.37443L68.6348 7.40735Z" fill="#447065"/>
<path d="M77.3648 16.1974C76.8599 16.4443 75.6709 16.8393 73.7816 16.8393C70.4427 16.8393 68.423 14.7159 68.423 11.7365C68.423 8.41137 70.5567 6.23853 73.5535 6.23853C77.2345 6.23853 78 9.28379 78.0163 10.8476C78.0163 11.1274 78 11.292 77.9674 11.5225H69.726C69.726 14.683 71.6968 15.9011 73.9607 15.9011C75.5406 15.9011 76.3875 15.6212 77.0553 15.3414L77.3811 16.1974H77.3648ZM76.6644 10.6171C76.6807 9.16857 75.9966 7.16034 73.4232 7.16034C71.029 7.16034 69.9866 9.08626 69.7912 10.6171H76.6644Z" fill="#447065"/>
<path d="M8.42055 2.81482C7.88307 2.51852 6.87325 2.09054 5.5214 2.09054C3.58321 2.09054 2.76885 3.22634 2.76885 4.27984C2.76885 5.67901 3.68094 6.37037 5.74943 7.27572C8.37169 8.44444 9.62581 9.87654 9.62581 12.1481C9.62581 14.8971 7.60618 16.9712 3.94153 16.9712C2.41052 16.9712 0.781792 16.5268 0 15.9835L0.553769 13.893C1.43328 14.4362 2.75256 14.8642 4.08812 14.8642C6.02631 14.8642 7.11756 13.8601 7.11756 12.3621C7.11756 10.963 6.28691 10.107 4.34872 9.28395C1.9219 8.2963 0.276885 6.79835 0.276885 4.55967C0.276885 1.95885 2.34538 0 5.58655 0C7.13385 0 8.30654 0.395062 9.02318 0.757202L8.42055 2.83128V2.81482Z" fill="#447065"/>
<path d="M23.6492 17.1358H21.1409C20.7826 16.7572 20.4732 16.4115 19.9845 15.8354C18.9259 16.8559 17.6392 17.3333 16.1407 17.3333C13.323 17.3333 11.8246 15.4238 11.8246 13.3168C11.8246 11.4568 12.867 10.107 14.4468 9.16869V9.11931C13.7791 8.21396 13.3393 7.144 13.3393 6.12343C13.3393 4.34565 14.5771 2.56787 16.9551 2.56787C18.7304 2.56787 20.1474 3.7366 20.1474 5.66252C20.1474 7.144 19.3493 8.34565 17.2483 9.48145V9.56376C18.2092 10.7489 19.3819 12.214 20.2614 13.2181C20.8966 12.1975 21.2712 10.7654 21.4667 9.251H23.3886C23.0466 11.3909 22.4602 13.251 21.369 14.5514L23.6492 17.1358ZM18.9747 14.5843C18.0789 13.5473 16.7271 11.9341 15.4078 10.3539C14.7237 10.8477 13.8931 11.6872 13.8931 13.0041C13.8931 14.502 14.9355 15.7201 16.5153 15.7201C17.8183 15.7201 18.6001 15.0452 18.991 14.6008L18.9747 14.5843ZM15.2775 5.94236C15.2775 6.88063 15.6847 7.63783 16.2547 8.37857C17.5089 7.58845 18.2581 6.84771 18.2581 5.76129C18.2581 4.93824 17.8509 4.03289 16.8085 4.03289C15.7661 4.03289 15.2612 4.98762 15.2612 5.94236H15.2775Z" fill="#447065"/>
<path d="M33.4868 2.38688H29.0729V16.7243H26.5972V2.38688H22.2159V0.263428H33.4868V2.38688Z" fill="#447065"/>
</g>
<defs>
<clipPath id="clip0_2751_3">
<rect width="78" height="17.3333" fill="white"/>
</clipPath>
</defs>
</svg>
