<svg width="101" height="26" viewBox="0 0 101 26" fill="none" xmlns="http://www.w3.org/2000/svg">
<path d="M0.717206 1.4375H14.315L8.79062 8.9862L15.3036 17.8061H12.9485L7.61789 10.5996L2.33576 17.8061H0L10.6321 3.29534H0.717206V1.4375Z" fill="#21412B"/>
<path d="M29.6962 8.48742L26.4397 17.9624H24.4819L27.7384 8.48742H19.2676V6.58069H35.3175V8.48742H29.6962ZM33.8541 1.32007V3.19747H21.2642V1.32007H33.8541Z" fill="#21412B"/>
<path d="M56.824 9.29901V11.1373H50.2819L50.8247 18.0113H49.0317L48.4889 11.1373H40.6675V9.29901H48.3532L48.014 4.98686H41.0067V3.14858H47.888L47.6845 0.361816H49.4775L49.681 3.14858H55.7967V4.98686H49.8361L50.1463 9.29901H56.8143H56.824Z" fill="#21412B"/>
<path d="M64.7811 6.67852H63.1626V4.61534H61.4568L64.1802 0.332525H66.0702L64.7908 2.39571V6.67852H64.7811ZM63.6084 17.9918L64.7521 16.6326H67.4464L66.3222 17.9918H63.5987H63.6084ZM64.219 15.4984V7.60744H76.4406V15.4984H64.219ZM75.0546 8.99593H65.6146V9.78796H75.0546V8.99593ZM65.6146 11.9685H75.0546V11.1765H65.6146V11.9685ZM65.6146 14.1197H75.0546V13.3472H65.6146V14.1197ZM73.3488 2.78683H78.631V4.33177H73.3488V5.05535H77.2353V6.61985H67.9116V5.05535H71.7981V4.33177H66.516V2.78683H71.7981V2.08281L68.4544 2.3077V0.752984L76.5859 0.136963V1.7308L73.3488 1.95569V2.77705V2.78683ZM73.6202 16.6424H76.2758L77.3322 18.0016H74.6766L73.6202 16.6424Z" fill="#21412B"/>
<path d="M86.433 6.13089V3.88192L86.0259 4.2926H83.7095L87.2859 0.547587H89.6216L88.0903 2.16098V6.12111H86.433V6.13089ZM86.2973 17.9917L87.4022 16.701H89.7186L88.6137 17.9917H86.2973ZM86.811 15.7623V6.85447H98.7224V15.7623H86.811ZM97.0844 8.48741H88.4586V9.32833H97.0844V8.48741ZM88.4586 11.6849H97.0844V10.8733H88.4586V11.6849ZM88.4586 14.1294H97.0844V13.22H88.4586V14.1294ZM101 1.58407V3.12901L97.54 3.30501L100.011 6.22867H97.8986L95.495 3.41257L89.8736 3.68636V2.14142L94.2059 1.91652L92.8297 0.283578H94.9619L96.2412 1.79919L100.99 1.57429L101 1.58407ZM95.7179 16.6815H98.2087L99.5074 17.9722H97.0166L95.7179 16.6815ZM97.6466 0.987602L96.658 -0.00976562H98.9744L99.9145 0.987602H97.6466Z" fill="#21412B"/>
<path d="M17.4456 26V25.5698H19.1707V24.0346H17.4843V22.1768H19.6456V22.5972H17.9302V23.6044H19.6166V26H17.4456Z" fill="#21412B"/>
<path d="M22.9603 26V22.1768H23.4158V25.5698H24.9374V22.1768H25.4027V26H22.9506H22.9603Z" fill="#21412B"/>
<path d="M30.7817 22.1768V22.6168H29.9094V26H29.4539V22.6168H28.5816V22.1768H30.7914H30.7817Z" fill="#21412B"/>
<path d="M35.8797 26H33.9607V22.167H35.8797V22.5875H34.4162V23.5946H35.7052V24.0248H34.4162V25.5698H35.8797V26Z" fill="#21412B"/>
<path d="M41.4138 26H40.9001L39.7856 23.8195H39.5626V26H39.1071V22.1768H39.5626V23.3892H39.7759L40.7257 22.1865H41.3072L40.1829 23.5946L41.4041 26H41.4138Z" fill="#21412B"/>
<path d="M45.0386 26H44.5734V22.1768H45.0386V26Z" fill="#21412B"/>
<path d="M54.7209 26H52.4045V22.1768H54.7209V22.607H52.8697V25.5698H54.7209V26Z" fill="#21412B"/>
<path d="M60.003 22.1768H60.4585V26H60.003V24.0346H58.4426V26H57.9871V22.1768H58.4426V23.6044H60.003V22.1768Z" fill="#21412B"/>
<path d="M64.2287 26H63.7635V22.1768H64.2287V26Z" fill="#21412B"/>
<path d="M67.5337 22.1768H68.183L69.5496 23.5164V22.1768H70.0051V26H69.5496V24.1519L67.9698 22.5972V26H67.524V22.1768H67.5337Z" fill="#21412B"/>
<path d="M75.3938 22.1768V22.6168H74.5216V26H74.066V22.6168H73.1938V22.1768H75.4035H75.3938Z" fill="#21412B"/>
<path d="M78.5728 22.1768H81.0249V26H80.5499V24.0346H79.038V26H78.5825V22.1768H78.5728ZM79.0283 23.6044H80.5403V22.607H79.0283V23.6044Z" fill="#21412B"/>
<path d="M84.795 26H84.3298V22.1768H84.795V26Z" fill="#21412B"/>
</svg>
