<svg width="202" height="64" viewBox="0 0 202 64" fill="none" xmlns="http://www.w3.org/2000/svg">
<g clip-path="url(#clip0_18_223)">
<path d="M95.8962 46.7968H86.3564C86.2528 46.7968 86.1751 46.8808 86.1751 46.9806V50.1894C86.1751 50.2944 86.258 50.3732 86.3564 50.3732H91.9187V59.1382C91.7271 59.2064 91.5095 59.2695 91.2713 59.3272C90.9813 59.4008 90.6809 59.4585 90.3701 59.511C90.0594 59.5636 89.7538 59.6003 89.4327 59.6266C89.1272 59.6528 88.8371 59.6686 88.5678 59.6686C87.1902 59.7053 85.8178 59.448 84.5385 58.9176C83.4613 58.445 82.5187 57.7097 81.7988 56.7697C81.0427 55.7456 80.504 54.5692 80.2192 53.3246C79.8618 51.8016 79.6909 50.2419 79.7065 48.6769C79.6909 47.1434 79.9033 45.6152 80.3331 44.15C80.706 42.8791 81.312 41.6975 82.1303 40.6681C82.9071 39.7123 83.8912 38.9509 85.0046 38.4362C86.2373 37.89 87.5683 37.6222 88.9096 37.6432C90.1164 37.6327 91.3127 37.7902 92.478 38.1053C93.5863 38.4204 94.6532 38.8616 95.6683 39.413C95.7253 39.4445 95.7926 39.4445 95.8496 39.413C95.9066 39.3815 95.9376 39.3185 95.9376 39.2555V35.3902C95.9376 35.3167 95.8962 35.2537 95.834 35.2222C94.7723 34.7233 93.6588 34.3557 92.5091 34.1299C91.3075 33.8988 90.0905 33.7832 88.8682 33.7885C86.983 33.7675 85.1134 34.1141 83.3629 34.8178C81.7315 35.4795 80.271 36.5036 79.0746 37.8113C77.842 39.1977 76.9046 40.8257 76.3142 42.5902C75.6357 44.6384 75.3043 46.7916 75.3354 48.95C75.2991 51.0769 75.5995 53.1986 76.2158 55.2309C76.7337 56.9167 77.5986 58.466 78.7535 59.7841C79.8618 61.0078 81.2343 61.953 82.7621 62.5517C84.4453 63.1924 86.2321 63.5075 88.0292 63.4813C88.6921 63.4813 89.3499 63.4445 90.0076 63.371C90.6964 63.2975 91.3801 63.1872 92.0585 63.0401C92.7421 62.8931 93.4154 62.7093 94.0783 62.4887C94.7205 62.2734 95.3472 62.0266 95.9583 61.7377C96.0257 61.7062 96.0671 61.6432 96.0671 61.5697V46.9859C96.0671 46.8808 95.9842 46.8021 95.8858 46.8021L95.8962 46.7968Z" fill="#426E63"/>
<path d="M115.535 53.4244C115.064 52.437 114.489 51.497 113.826 50.6305C113.396 50.0843 112.858 49.6432 112.241 49.3333C112.987 49.118 113.697 48.8029 114.36 48.3933C115.1 47.9364 115.758 47.3535 116.302 46.6707C116.825 46.009 117.224 45.258 117.482 44.4545C117.752 43.6195 117.881 42.753 117.881 41.876C117.892 40.8047 117.71 39.7438 117.343 38.7408C116.985 37.7955 116.395 36.9552 115.634 36.2987C114.763 35.574 113.754 35.0436 112.671 34.7338C111.283 34.3399 109.843 34.1508 108.398 34.1823H100.863C100.759 34.1823 100.682 34.2664 100.682 34.3661V62.8983C100.682 63.0033 100.765 63.0821 100.863 63.0821H104.695C104.799 63.0821 104.877 62.9981 104.877 62.8983V50.3784H106.503C107 50.3784 107.492 50.4309 107.974 50.5465C108.398 50.6567 108.802 50.8405 109.165 51.0979C109.559 51.3867 109.906 51.7438 110.185 52.1482C110.558 52.6839 110.874 53.2563 111.138 53.8497L115.333 62.9771C115.364 63.0401 115.426 63.0821 115.499 63.0821H119.829C119.932 63.0821 120.01 62.9981 120.01 62.8931C120.01 62.8668 120.005 62.8405 119.994 62.8143L115.535 53.4244ZM104.877 37.827H108.31C109.968 37.827 111.268 38.1946 112.169 38.9193C113.06 39.6335 113.51 40.7416 113.51 42.2016C113.521 42.8896 113.386 43.5775 113.106 44.2077C112.842 44.7749 112.454 45.2791 111.972 45.6677C111.444 46.0878 110.833 46.3924 110.185 46.571C109.403 46.7863 108.6 46.8913 107.792 46.8808H104.877V37.827Z" fill="#426E63"/>
<path d="M140.27 37.7377C139.385 36.4931 138.214 35.4848 136.857 34.8073C135.355 34.0983 133.708 33.7465 132.051 33.7833C130.554 33.778 129.073 34.0826 127.696 34.6813C126.297 35.301 125.059 36.2463 124.086 37.4384C122.983 38.8248 122.154 40.4108 121.652 42.1176C121.02 44.276 120.719 46.5185 120.761 48.7662C120.74 50.8248 120.958 52.8835 121.413 54.8896C121.781 56.5491 122.46 58.1246 123.412 59.5268C124.288 60.7767 125.458 61.785 126.82 62.4572C128.327 63.1609 129.969 63.5075 131.626 63.4708C133.128 63.4708 134.615 63.1714 135.992 62.5727C137.396 61.9531 138.639 61.0078 139.613 59.8156C140.716 58.4292 141.55 56.8432 142.057 55.1364C142.699 52.9675 143.005 50.7093 142.958 48.4406C142.979 46.3924 142.756 44.3443 142.295 42.3487C141.917 40.6944 141.234 39.1242 140.275 37.7325L140.27 37.7377ZM131.834 59.7211C130.756 59.7526 129.695 59.4743 128.768 58.9176C127.898 58.3557 127.183 57.5784 126.691 56.6594C126.106 55.5566 125.702 54.3697 125.494 53.1355C125.225 51.6231 125.101 50.0896 125.111 48.5509C125.106 47.1067 125.241 45.6677 125.515 44.255C125.743 43.0314 126.157 41.8498 126.743 40.7522C127.245 39.8174 127.96 39.0139 128.825 38.4152C129.721 37.8323 130.767 37.5329 131.834 37.5644C132.921 37.5329 133.993 37.8113 134.936 38.3679C135.816 38.9299 136.536 39.7124 137.033 40.6366C137.624 41.7395 138.028 42.9316 138.23 44.171C138.489 45.6782 138.613 47.2012 138.603 48.7347C138.608 50.1789 138.473 51.6231 138.199 53.041C137.971 54.2647 137.551 55.441 136.961 56.5334C136.453 57.4682 135.728 58.2717 134.853 58.8703C133.952 59.4533 132.901 59.7526 131.834 59.7264V59.7211Z" fill="#426E63"/>
<path d="M165.518 34.1824H161.686C161.582 34.1824 161.504 34.2664 161.504 34.3662V53.2038C161.504 55.3202 161.028 56.9745 160.096 58.1299C159.169 59.2747 157.698 59.8524 155.73 59.8524C154.813 59.8787 153.896 59.7316 153.026 59.427C152.343 59.1749 151.737 58.7496 151.26 58.1929C150.784 57.5994 150.447 56.901 150.276 56.15C150.059 55.1994 149.955 54.2226 149.971 53.2458V34.3662C149.971 34.2611 149.888 34.1824 149.789 34.1824H145.957C145.853 34.1824 145.776 34.2664 145.776 34.3662V53.5557C145.76 54.9264 145.941 56.2865 146.309 57.6047C146.641 58.7706 147.226 59.8419 148.029 60.7452C148.873 61.6537 149.919 62.3522 151.079 62.7671C152.534 63.2765 154.062 63.5128 155.6 63.476C157.066 63.5023 158.526 63.2502 159.899 62.7303C161.095 62.2682 162.183 61.5434 163.074 60.6139C163.959 59.6633 164.633 58.5342 165.042 57.2948C165.503 55.8979 165.725 54.438 165.71 52.9675V34.3662C165.71 34.2611 165.627 34.1824 165.529 34.1824H165.518Z" fill="#426E63"/>
<path d="M188.114 38.9719C187.55 37.869 186.742 36.9185 185.742 36.199C184.707 35.4638 183.541 34.9386 182.309 34.655C180.983 34.3347 179.626 34.1771 178.264 34.1824H170.34C170.236 34.1824 170.159 34.2664 170.159 34.3662V62.8984C170.159 62.9981 170.241 63.0822 170.34 63.0822H174.172C174.276 63.0822 174.354 62.9981 174.354 62.8984V52.8467H177.658C179.398 52.8887 181.128 52.5946 182.764 51.9959C184.075 51.5023 185.276 50.7408 186.291 49.7587C187.187 48.8765 187.886 47.8051 188.337 46.6235C188.767 45.4997 188.99 44.3023 188.995 43.0944C189.036 41.666 188.731 40.248 188.114 38.9666V38.9719ZM174.359 37.7798H178.093C180.165 37.7798 181.796 38.2577 182.94 39.2029C184.075 40.1377 184.65 41.5084 184.65 43.273C184.65 45.2423 184.054 46.7285 182.878 47.6896C181.692 48.6612 179.968 49.1548 177.751 49.1548H174.359V37.785V37.7798Z" fill="#426E63"/>
<path d="M10.4211 63.0191C7.42765 63.0191 4.09234 62.1211 2.30556 60.8344L2 60.6139L3.31548 56.6121L3.86446 56.9797C5.89983 58.2559 8.24593 58.9334 10.6387 58.9439C14.6213 58.9439 17.0969 56.8537 17.0969 53.4822C17.0969 50.452 15.4966 48.6191 11.3948 46.9386C5.6823 44.7749 2.78204 41.4611 2.78204 37.0918C2.78204 31.6301 7.10654 27.8174 13.3007 27.8174C16.03 27.8174 18.6351 28.4318 20.2769 29.4664L20.6239 29.687L19.1944 33.6835L18.661 33.3421C16.9934 32.3706 15.0978 31.8716 13.1712 31.8979C8.90885 31.8979 7.39657 34.4397 7.39657 36.6139C7.39657 39.413 8.92439 41.0095 13.4509 42.9421C19.2721 45.4366 21.7581 48.4983 21.7581 53.1776C21.7581 59.1592 17.3093 63.0191 10.416 63.0191H10.4211Z" fill="#426E63"/>
<path d="M34.2707 63.8121C28.4598 63.8121 25.4145 59.5058 25.4145 55.252C25.4145 51.7176 27.1857 48.7977 30.6764 46.5657C29.2418 44.5071 28.4857 42.4012 28.4857 40.4423C28.4857 36.7137 30.9975 32.943 35.8037 32.943C39.5637 32.943 42.1894 35.6213 42.1894 39.455C42.1894 42.7005 40.3819 45.0953 36.1714 47.406C38.1394 49.806 40.5684 52.7049 42.5779 55.0577C43.5878 53.1356 44.3232 50.5465 44.8204 47.1644L44.8825 46.7285H48.7927L48.6995 47.322C47.9278 52.101 46.7366 55.4515 44.9706 57.8095C46.2602 59.2222 47.5757 60.6664 49.2122 62.5045L49.9735 63.3605H44.867L44.7168 63.1924C44.1368 62.5517 43.5826 61.9478 42.8627 61.1758L42.3707 60.6454C40.1696 62.7145 37.2693 63.8542 34.2707 63.8174V63.8121ZM32.6807 49.2493C30.5418 50.7776 29.4593 52.6366 29.4593 54.7951C29.4593 58.0196 31.7019 60.3618 34.7938 60.3618C36.8136 60.3671 38.7505 59.532 40.1489 58.0563C39.631 57.4471 39.0199 56.7329 38.3466 55.9452C36.7048 54.0283 34.6746 51.6651 32.6755 49.2546L32.6807 49.2493ZM35.5085 36.241C33.3488 36.241 32.3803 38.1946 32.3803 40.1325C32.3803 41.9233 33.0795 43.3517 34.1516 44.8905C36.6996 43.3728 38.3725 41.8655 38.3725 39.6388C38.3725 38.0738 37.6215 36.241 35.5085 36.241Z" fill="#426E63"/>
<path d="M59.2803 62.5412H54.702V32.4178H45.0742V28.3425H68.9548V32.4178H59.2803V62.5412Z" fill="#426E63"/>
</g>
<path d="M8.2996 11.178C9.45232 11.6391 10.3535 12.2678 11.0033 13.0643C11.653 13.8502 11.9778 14.7043 11.9778 15.6264C11.9778 16.2866 11.7944 16.8578 11.4277 17.3398C11.0714 17.8114 10.6103 18.1677 10.0444 18.4087C9.489 18.6602 8.91264 18.7859 8.31532 18.7859C7.30931 18.7859 6.56004 18.4558 6.06751 17.7957C5.58546 17.1355 5.34444 16.229 5.34444 15.0763C5.34444 14.7095 5.34968 14.4423 5.36016 14.2746C4.53229 13.9393 4.11836 13.4887 4.11836 12.9228C4.11836 12.3359 4.64233 11.6076 5.69026 10.7379C5.73217 10.4863 5.76885 10.261 5.80029 10.0619C5.84221 9.86283 5.87888 9.68468 5.91032 9.52749L5.98892 9.15024C5.26584 8.83586 4.68948 8.44812 4.25983 7.98704C4.20744 7.93464 4.16552 7.89272 4.13408 7.86128C4.11312 7.81937 4.10264 7.78269 4.10264 7.75125C4.10264 7.69886 4.12884 7.67266 4.18124 7.67266C4.21268 7.67266 4.29127 7.69886 4.41702 7.75125C4.87811 7.96084 5.45971 8.11279 6.16182 8.2071C6.2771 7.60978 6.33473 7.11725 6.33473 6.72952C6.33473 6.3837 6.28234 6.07456 6.17754 5.8021C6.09371 5.58204 5.98892 5.41961 5.86316 5.31482C5.73741 5.19954 5.65882 5.12619 5.62738 5.09475C5.58546 5.05283 5.5645 5.01616 5.5645 4.98472C5.5645 4.91136 5.64834 4.87469 5.81601 4.87469C5.98368 4.87469 6.18278 4.91136 6.41333 4.98472C6.64387 5.05807 6.84298 5.15763 7.01065 5.28338C7.45078 5.60824 7.67084 5.99597 7.67084 6.44658C7.67084 6.75048 7.58177 7.11201 7.40362 7.53119L7.02637 8.34857C7.35122 8.39049 7.67084 8.46908 7.98522 8.58436C8.23672 8.66819 8.42011 8.79918 8.53538 8.97733C8.65066 9.15548 8.70829 9.33886 8.70829 9.52749C8.70829 9.9257 8.46727 10.1562 7.98522 10.2191C7.42982 10.282 6.87442 10.4549 6.31901 10.7379C6.13039 11.6286 5.9994 12.4617 5.92604 13.2372L6.14611 13.2529C6.2509 13.2634 6.41333 13.2686 6.63339 13.2686L7.41934 13.2529C7.72324 13.2529 7.97998 13.3158 8.18957 13.4415C8.40963 13.5673 8.51967 13.7611 8.51967 14.0231C8.51967 14.2641 8.40439 14.4318 8.17385 14.5261C7.95378 14.6099 7.69704 14.6519 7.40362 14.6519C6.89014 14.6519 6.37665 14.5838 5.86316 14.4475V14.4947C5.86316 15.4797 6.03607 16.2709 6.38189 16.8682C6.73819 17.4551 7.32503 17.7485 8.14241 17.7485C8.81309 17.7485 9.36325 17.518 9.7929 17.0569C10.233 16.5853 10.4531 15.9723 10.4531 15.2177C10.4531 14.5261 10.2435 13.8502 9.82434 13.19C9.41564 12.5193 8.855 11.9063 8.14241 11.3509C8.02714 11.2671 7.9695 11.1989 7.9695 11.1465C7.9695 11.1151 7.9957 11.0994 8.0481 11.0994C8.07954 11.0994 8.11621 11.1099 8.15813 11.1308C8.21053 11.1518 8.25768 11.1675 8.2996 11.178ZM7.08924 9.63752C7.08924 9.59561 7.05256 9.55893 6.97921 9.52749C6.91633 9.49605 6.85346 9.47509 6.79058 9.46462C6.73819 9.44366 6.69103 9.42794 6.64911 9.41746L6.61767 9.54321C6.58624 9.648 6.53384 9.85759 6.46048 10.172C6.61767 10.0777 6.75914 9.9781 6.8849 9.87331C7.02113 9.76852 7.08924 9.68992 7.08924 9.63752ZM4.63709 12.5298C4.63709 12.8232 4.89383 13.0328 5.40732 13.1586C5.45971 12.5508 5.53307 11.8906 5.62738 11.178C5.32348 11.398 5.08246 11.6286 4.90431 11.8696C4.72616 12.1106 4.63709 12.3307 4.63709 12.5298ZM24.3801 18.2515C24.3382 18.2515 24.2962 18.2358 24.2543 18.2043C24.2229 18.1834 24.2072 18.1572 24.2072 18.1258C24.2072 18.0314 24.2753 17.979 24.4115 17.9686C25.3966 17.8742 26.2925 17.6175 27.0995 17.1983C27.9168 16.7687 28.5561 16.2395 29.0172 15.6107C29.4887 14.982 29.7245 14.327 29.7245 13.6459C29.7245 13.0066 29.5306 12.5089 29.1429 12.1526C28.7657 11.7963 28.3203 11.6181 27.8068 11.6181C27.1257 11.6181 26.4393 11.8487 25.7476 12.3097C25.056 12.7708 24.4534 13.2267 23.9399 13.6773C23.6884 13.8974 23.4474 14.086 23.2169 14.2432C22.9968 14.3899 22.7663 14.4632 22.5252 14.4632C22.2318 14.4632 21.9541 14.3689 21.6921 14.1803C21.4406 13.9812 21.231 13.7611 21.0634 13.5201C20.9376 13.3734 20.8748 13.2686 20.8748 13.2057C20.8748 13.1114 20.9324 13.0643 21.0477 13.0643C21.121 13.0643 21.231 13.08 21.3778 13.1114C21.5245 13.1428 21.6764 13.1586 21.8336 13.1586C22.0537 13.1586 22.2842 13.1062 22.5252 13.0014C22.7663 12.8861 23.1383 12.6922 23.6413 12.4198C24.3853 12.0006 25.0507 11.6757 25.6376 11.4452C26.2244 11.2042 26.8584 11.0837 27.5396 11.0837C28.1474 11.0837 28.708 11.2147 29.2215 11.4766C29.7455 11.7386 30.1646 12.1106 30.479 12.5927C30.7934 13.0747 30.9506 13.6301 30.9506 14.2589C30.9506 14.7305 30.8039 15.2492 30.5105 15.8151C30.217 16.3809 29.5935 16.9102 28.6399 17.4027C27.6968 17.8952 26.3397 18.1729 24.5687 18.2358L24.3801 18.2515ZM45.192 18.4401C44.0707 18.4401 43.1485 18.2305 42.4254 17.8114C41.7023 17.3922 41.3408 16.6953 41.3408 15.7208C41.3408 14.9453 41.5504 14.2799 41.9696 13.7244C42.3887 13.1586 42.9651 12.6294 43.6987 12.1368C43.3004 11.812 43.0123 11.4766 42.8341 11.1308C42.6664 10.7745 42.5826 10.3239 42.5826 9.77899C42.5826 9.48557 42.6036 9.21311 42.6455 8.96161C42.6874 8.71011 42.745 8.40621 42.8184 8.04991C42.8708 7.84033 42.9127 7.6255 42.9441 7.40543C42.9861 7.18537 43.007 6.98102 43.007 6.7924C43.007 6.31035 42.876 5.91214 42.614 5.59776C42.5512 5.53488 42.4831 5.47201 42.4097 5.40913C42.3363 5.34625 42.2997 5.30434 42.2997 5.28338C42.2997 5.24146 42.3206 5.21526 42.3625 5.20478C42.4045 5.18382 42.4726 5.17335 42.5669 5.17335C42.6822 5.17335 42.8132 5.18906 42.9599 5.2205C43.1066 5.24146 43.2271 5.2729 43.3214 5.31482C44.1493 5.56632 44.5632 6.04837 44.5632 6.76096C44.5632 6.93911 44.537 7.11201 44.4846 7.27968C44.4322 7.43687 44.3484 7.63598 44.2331 7.877L44.0916 8.19138C43.9449 8.5372 43.8296 8.84634 43.7458 9.1188C43.662 9.39126 43.6201 9.68992 43.6201 10.0148C43.6201 10.3711 43.6934 10.7169 43.8401 11.0522C43.9973 11.3771 44.1807 11.5395 44.3903 11.5395C44.5265 11.5395 44.668 11.5081 44.8147 11.4452C44.9719 11.3823 45.171 11.288 45.412 11.1623C45.653 11.0365 45.8469 10.9422 45.9936 10.8793C46.1508 10.8164 46.2923 10.785 46.418 10.785C46.7114 10.785 46.9734 10.8636 47.204 11.0208C47.445 11.178 47.5655 11.3561 47.5655 11.5552C47.5655 11.7963 47.4502 11.9692 47.2197 12.074C46.9996 12.1683 46.6119 12.2626 46.0565 12.3569C45.019 12.5246 44.144 12.8599 43.4314 13.3629C42.7293 13.8659 42.3783 14.5261 42.3783 15.3435C42.3783 15.8675 42.5459 16.2866 42.8813 16.601C43.2271 16.9049 43.7406 17.0569 44.4217 17.0569C44.778 17.0569 45.2601 16.994 45.8679 16.8682C46.3918 16.7634 46.7796 16.711 47.0311 16.711C47.3874 16.711 47.6598 16.7739 47.8485 16.8997C48.0371 17.0254 48.1314 17.2088 48.1314 17.4498C48.1314 17.8166 47.838 18.0734 47.2511 18.2201C46.6643 18.3668 45.9779 18.4401 45.192 18.4401ZM63.9604 12.4984C64.9978 12.9071 65.9514 13.4258 66.8212 14.0545C67.7015 14.6833 68.1416 15.3173 68.1416 15.9565C68.1416 16.229 68.0578 16.4491 67.8901 16.6167C67.7224 16.7844 67.539 16.8682 67.3399 16.8682C67.1618 16.8682 66.9836 16.7949 66.8055 16.6482C66.6378 16.5015 66.4963 16.2971 66.3811 16.0351C66.0562 15.3435 65.6632 14.7095 65.2022 14.1331C64.7411 13.5568 64.2538 13.1009 63.7403 12.7656C61.8121 14.9034 59.47 16.5277 56.7139 17.6385C56.6511 17.6594 56.5987 17.6699 56.5567 17.6699C56.4939 17.6699 56.4624 17.6489 56.4624 17.607C56.4624 17.5651 56.5253 17.5075 56.6511 17.4341C57.7723 16.8263 58.8779 16.0194 59.9677 15.0134C61.0681 13.9969 62.0165 12.9647 62.8129 11.9168C63.6093 10.8584 64.1437 9.97286 64.4162 9.26027C64.4476 9.16596 64.4634 9.09784 64.4634 9.05592C64.4634 9.00353 64.4214 8.97733 64.3376 8.97733C64.1699 8.97733 63.6722 9.0926 62.8443 9.32315C62.0269 9.55369 61.4296 9.7528 61.0524 9.92047C60.9685 9.9519 60.8533 10.0043 60.7065 10.0777C60.5703 10.151 60.4498 10.1877 60.345 10.1877C60.083 10.1877 59.821 10.0881 59.5591 9.88903C59.3076 9.67944 59.098 9.43842 58.9303 9.16596C58.7731 8.88301 58.6945 8.64199 58.6945 8.44288C58.6945 8.29617 58.7312 8.22282 58.8045 8.22282C58.836 8.22282 58.8989 8.26474 58.9932 8.34857C59.0875 8.42193 59.187 8.4848 59.2918 8.5372C59.5433 8.65247 59.821 8.71011 60.1249 8.71011C60.3345 8.71011 61.0052 8.61579 62.137 8.42717C63.2792 8.23854 63.997 8.10755 64.2905 8.03419C64.4581 7.99228 64.652 7.9032 64.8721 7.76697C65.0502 7.6517 65.1707 7.59406 65.2336 7.59406C65.3698 7.59406 65.5637 7.6779 65.8152 7.84557C66.0667 8.01323 66.292 8.2071 66.4911 8.42717C66.6902 8.63675 66.7898 8.80966 66.7898 8.94589C66.7898 9.01925 66.7531 9.0926 66.6797 9.16596C66.6169 9.23931 66.5173 9.32315 66.3811 9.41746C66.2868 9.49081 66.1925 9.56941 66.0981 9.65324C66.0038 9.7266 65.9305 9.80519 65.8781 9.88903C65.2598 10.8636 64.6206 11.7334 63.9604 12.4984ZM79.8208 7.64122C79.5064 7.64122 79.2235 7.58882 78.972 7.48403C78.7204 7.37924 78.5109 7.24301 78.3432 7.07534C78.2698 6.9915 78.1965 6.89195 78.1231 6.77668C78.0498 6.65093 78.0131 6.56185 78.0131 6.50946C78.0131 6.46754 78.0393 6.44658 78.0917 6.44658C78.1336 6.44658 78.2122 6.4623 78.3275 6.49374C78.4427 6.52517 78.5737 6.55137 78.7204 6.57233C78.8148 6.59329 78.9405 6.60377 79.0977 6.60377C79.3387 6.60377 79.6531 6.57757 80.0408 6.52517C80.5438 6.47278 80.9473 6.4099 81.2512 6.33655C81.5656 6.25271 81.8852 6.1584 82.2101 6.05361C82.3463 6.00121 82.4773 5.95929 82.603 5.92785C82.7393 5.88594 82.8702 5.86498 82.996 5.86498C83.3628 5.86498 83.6929 5.95405 83.9863 6.1322C84.2797 6.31035 84.4264 6.51469 84.4264 6.74524C84.4264 6.91291 84.3583 7.03342 84.2221 7.10678C84.0963 7.18013 83.892 7.22729 83.609 7.24825H83.2318C82.6135 7.24825 81.8118 7.33732 80.8268 7.51547C80.722 7.52595 80.5543 7.55214 80.3238 7.59406C80.1037 7.6255 79.936 7.64122 79.8208 7.64122ZM84.6622 8.67867C84.9032 8.67867 85.1862 8.72583 85.511 8.82014C85.8359 8.91445 86.1136 9.04544 86.3441 9.21311C86.5852 9.3703 86.7057 9.53797 86.7057 9.71612C86.7057 10.02 86.5066 10.172 86.1084 10.172L85.5896 10.1405C84.9609 10.0777 84.4002 10.0462 83.9077 10.0462C83.3837 10.0462 82.8702 10.0619 82.3672 10.0934C82.6397 10.2401 82.865 10.4025 83.0432 10.5807C83.2213 10.7588 83.3104 10.9108 83.3104 11.0365C83.3104 11.0889 83.2894 11.1413 83.2475 11.1937C83.2161 11.2356 83.1637 11.2828 83.0903 11.3352C82.9226 11.4819 82.8179 11.6181 82.7759 11.7439C82.4616 12.6032 82.0109 13.4834 81.4241 14.3846C80.8373 15.2859 80.0723 16.1294 79.1291 16.9154C78.1965 17.6909 77.1171 18.2934 75.891 18.7231C75.7967 18.7545 75.7181 18.7702 75.6553 18.7702C75.5924 18.7702 75.5609 18.7545 75.5609 18.7231C75.5609 18.6812 75.6395 18.613 75.7967 18.5187C77.1276 17.6804 78.2751 16.6482 79.2392 15.4221C80.2033 14.1855 80.9054 12.7761 81.3455 11.1937C81.3874 11.0575 81.4084 10.9265 81.4084 10.8007C81.4084 10.5807 81.2879 10.392 81.0469 10.2348C80.5962 10.2977 80.2137 10.3763 79.8994 10.4706C79.585 10.5545 79.2444 10.6593 78.8776 10.785C78.6471 10.8688 78.4585 10.9317 78.3118 10.9736C78.1755 11.0156 78.0341 11.0365 77.8873 11.0365C77.6568 11.0365 77.4053 10.937 77.1328 10.7379C76.8604 10.5387 76.6298 10.3082 76.4412 10.0462C76.2631 9.77376 76.174 9.55369 76.174 9.38602C76.174 9.35458 76.1845 9.32839 76.2054 9.30743C76.2264 9.28647 76.2473 9.27599 76.2683 9.27599C76.3102 9.27599 76.3783 9.30219 76.4726 9.35458C76.567 9.40698 76.6508 9.4489 76.7241 9.48033C77.028 9.63752 77.4472 9.71612 77.9817 9.71612C78.4113 9.71612 79.2759 9.64276 80.5753 9.49605C81.8852 9.34934 82.8126 9.21835 83.3575 9.10308C83.7453 9.01925 84.0596 8.90921 84.3007 8.77298C84.4264 8.71011 84.5469 8.67867 84.6622 8.67867ZM103.902 11.1151C104.143 11.1151 104.421 11.1623 104.735 11.2566C105.06 11.3509 105.333 11.4766 105.553 11.6338C105.783 11.7805 105.898 11.9377 105.898 12.1054C105.898 12.294 105.809 12.425 105.631 12.4984C105.464 12.5717 105.217 12.6084 104.892 12.6084L103.997 12.5927C103.053 12.6241 101.911 12.7761 100.57 13.0485C100.968 14.4108 101.35 15.6055 101.717 16.6325C101.895 17.1459 101.984 17.5337 101.984 17.7957C101.984 18.0576 101.927 18.2515 101.812 18.3773C101.696 18.503 101.539 18.5659 101.34 18.5659C101.109 18.5659 100.879 18.4506 100.648 18.2201C100.428 18 100.282 17.7485 100.208 17.4656C100.177 17.3398 100.135 17.1355 100.082 16.8525C100.041 16.5696 100.004 16.3443 99.9725 16.1766C99.8886 15.5164 99.7838 14.9086 99.6581 14.3532L99.4223 13.3158C97.9552 13.6721 96.9073 14.0283 96.2785 14.3846C96.0794 14.4894 95.8751 14.5418 95.6655 14.5418C95.0681 14.5418 94.4289 14.0912 93.7478 13.19C93.643 13.0538 93.5906 12.9647 93.5906 12.9228C93.5906 12.8599 93.6325 12.8285 93.7163 12.8285C93.7478 12.8285 93.8525 12.8547 94.0307 12.9071C94.5232 13.0223 94.9738 13.08 95.3825 13.08C95.6655 13.08 96.1685 13.0223 96.8915 12.9071C97.6251 12.7918 98.4058 12.6451 99.2337 12.4669L98.6521 9.99906C97.8242 10.2086 97.2531 10.3606 96.9387 10.4549C96.8968 10.4654 96.8129 10.4916 96.6872 10.5335C96.5614 10.5649 96.4409 10.5807 96.3257 10.5807C95.8436 10.5807 95.3144 10.2139 94.738 9.48033C94.6228 9.32315 94.5651 9.22883 94.5651 9.19739C94.5651 9.15548 94.5913 9.13452 94.6437 9.13452C94.7066 9.13452 94.7747 9.15024 94.8481 9.18167C95.2358 9.3703 95.6497 9.46462 96.0899 9.46462C96.6138 9.46462 97.3945 9.3441 98.432 9.10308C98.2434 8.33809 98.1124 7.8508 98.039 7.64122C97.8818 7.22205 97.7142 6.94435 97.536 6.80812C97.3684 6.67188 97.1378 6.59853 96.8444 6.58805C96.8234 6.58805 96.7867 6.58805 96.7344 6.58805C96.682 6.57757 96.6453 6.56709 96.6243 6.55661C96.6034 6.53565 96.5929 6.50422 96.5929 6.4623C96.5929 6.35751 96.7082 6.22651 96.9387 6.06932C97.1797 5.90166 97.405 5.79686 97.6146 5.75495C97.6984 5.74447 97.8242 5.73923 97.9919 5.73923C98.3482 5.73923 98.673 5.81782 98.9664 5.97501C99.2703 6.1322 99.4223 6.32607 99.4223 6.55661C99.4223 6.62997 99.4013 6.76096 99.3594 6.94959C99.328 7.13821 99.3123 7.29016 99.3123 7.40543C99.3123 7.61502 99.3804 8.09707 99.5166 8.85158C100.041 8.71535 100.517 8.56864 100.947 8.41145C101.146 8.33809 101.345 8.2333 101.544 8.09707C101.66 8.02371 101.759 7.97132 101.843 7.93988C101.927 7.89796 102.021 7.877 102.126 7.877C102.283 7.877 102.477 7.91892 102.708 8.00275C102.938 8.07611 103.137 8.1809 103.305 8.31713C103.473 8.45336 103.556 8.60007 103.556 8.75726C103.556 8.89349 103.478 9.00353 103.321 9.08736C103.174 9.16072 103.011 9.20787 102.833 9.22883C101.943 9.32315 100.905 9.50129 99.721 9.76328C99.8991 10.5807 100.103 11.4085 100.334 12.2469C101.151 12.0792 101.775 11.9272 102.205 11.791C102.54 11.6862 102.833 11.5448 103.085 11.3666C103.232 11.2723 103.352 11.2094 103.446 11.178C103.551 11.1361 103.703 11.1151 103.902 11.1151ZM114.685 18.0943C114.486 18.0943 114.271 17.9895 114.041 17.7799C113.81 17.5703 113.632 17.3188 113.506 17.0254C113.077 15.9985 112.862 14.7986 112.862 13.4258C112.862 12.7342 112.914 12.1211 113.019 11.5867C113.124 11.0522 113.271 10.4968 113.459 9.92047C113.596 9.45938 113.69 9.10832 113.742 8.8673C113.795 8.62627 113.821 8.37477 113.821 8.11279C113.821 7.88224 113.774 7.64646 113.679 7.40543C113.596 7.15393 113.48 6.95483 113.334 6.80812C113.208 6.70332 113.145 6.62997 113.145 6.58805C113.145 6.54613 113.182 6.52517 113.255 6.52517C113.339 6.52517 113.428 6.54613 113.522 6.58805C114.654 7.0177 115.22 7.73029 115.22 8.72583C115.22 9.00877 115.162 9.28123 115.047 9.54321C114.942 9.80519 114.785 10.1196 114.575 10.4863C114.261 10.9894 114.051 11.4347 113.947 11.8225C113.842 12.1788 113.789 12.5665 113.789 12.9857C113.789 13.2372 113.816 13.4729 113.868 13.693C113.931 13.9026 114.004 14.0074 114.088 14.0074C114.119 14.0074 114.151 13.9864 114.182 13.9445C114.224 13.9026 114.256 13.8607 114.277 13.8188C114.308 13.7664 114.334 13.7244 114.355 13.693C114.471 13.4729 114.591 13.2267 114.717 12.9542C114.853 12.6818 114.974 12.4407 115.078 12.2311L115.283 11.8067C115.367 11.681 115.429 11.6181 115.471 11.6181C115.503 11.6181 115.518 11.6391 115.518 11.681L115.471 11.8696C115.314 12.2678 115.141 12.8075 114.953 13.4887C114.764 14.1593 114.67 14.6938 114.67 15.092C114.67 15.3854 114.696 15.6579 114.748 15.9094C114.811 16.1504 114.9 16.4386 115.015 16.7739C115.026 16.8263 115.057 16.9416 115.11 17.1197C115.173 17.2979 115.204 17.4446 115.204 17.5599C115.204 17.7275 115.152 17.8585 115.047 17.9528C114.953 18.0472 114.832 18.0943 114.685 18.0943ZM120.407 9.30743C119.757 9.30743 119.212 9.21311 118.772 9.02449C118.458 8.89873 118.191 8.73107 117.971 8.52148C117.751 8.31189 117.593 8.10755 117.499 7.90844C117.447 7.80365 117.42 7.73029 117.42 7.68838C117.42 7.64646 117.436 7.6255 117.468 7.6255C117.489 7.6255 117.541 7.6517 117.625 7.70409C117.709 7.74601 117.782 7.78269 117.845 7.81413C118.201 7.97132 118.626 8.04991 119.118 8.04991C119.412 8.04991 119.778 8.01847 120.218 7.9556C120.659 7.89272 121.046 7.81413 121.382 7.71981C121.57 7.65694 121.733 7.6255 121.869 7.6255C122.162 7.6255 122.409 7.69886 122.608 7.84557C122.817 7.99228 122.922 8.17566 122.922 8.39573C122.922 8.73107 122.655 8.96685 122.12 9.10308C121.596 9.23931 121.025 9.30743 120.407 9.30743ZM120.831 17.4813C119.909 17.4813 119.139 17.3346 118.521 17.0411C117.903 16.7372 117.462 16.2238 117.2 15.5007C117.117 15.3016 117.075 15.1549 117.075 15.0606C117.075 15.0186 117.096 14.9977 117.138 14.9977C117.169 14.9977 117.211 15.0239 117.263 15.0763C117.316 15.1182 117.363 15.1549 117.405 15.1863C117.614 15.3435 117.829 15.4797 118.049 15.595C118.269 15.6998 118.542 15.7889 118.867 15.8622C119.129 15.9251 119.48 15.9565 119.92 15.9565C120.297 15.9565 120.91 15.9094 121.759 15.8151C122.22 15.7732 122.466 15.7522 122.498 15.7522C122.833 15.7522 123.09 15.836 123.268 16.0037C123.457 16.1609 123.551 16.3495 123.551 16.5696C123.551 16.9468 123.289 17.1931 122.765 17.3084C122.251 17.4236 121.607 17.4813 120.831 17.4813ZM141.675 5.77066C141.727 5.70779 141.78 5.63967 141.832 5.56632C141.895 5.48248 141.953 5.40913 142.005 5.34625C142.068 5.28338 142.12 5.25194 142.162 5.25194C142.225 5.25194 142.372 5.34101 142.602 5.51916C142.833 5.69731 143.048 5.88594 143.247 6.08504C143.446 6.28415 143.545 6.42038 143.545 6.49374C143.514 6.6614 143.378 6.74524 143.137 6.74524H139.333V7.51547C139.333 7.57834 139.212 7.64646 138.971 7.71981C138.73 7.79317 138.458 7.83509 138.154 7.84557C137.955 7.84557 137.855 7.74077 137.855 7.53119C137.855 7.53119 137.876 7.39496 137.918 7.12249V6.74524H135.199V7.02818C135.209 7.13297 135.214 7.23253 135.214 7.32684C135.225 7.41067 135.235 7.46831 135.246 7.49975C135.225 7.60454 135.089 7.69885 134.837 7.78269C134.596 7.85604 134.329 7.89272 134.035 7.89272C133.847 7.89272 133.752 7.78793 133.752 7.57834C133.752 7.57834 133.773 7.43163 133.815 7.13821V6.74524H132.291C131.547 6.75572 130.761 6.82907 129.933 6.9653L129.54 6.16364C130.116 6.22651 130.813 6.26843 131.63 6.28939H133.815C133.815 5.65015 133.784 5.10523 133.721 4.65462C134.413 4.82229 134.895 4.96376 135.167 5.07903C135.44 5.18382 135.576 5.2729 135.576 5.34625C135.576 5.38817 135.534 5.43533 135.45 5.48772L135.199 5.66063V6.28939H137.918C137.918 5.65015 137.887 5.10523 137.824 4.65462C138.526 4.82229 139.013 4.96376 139.286 5.07903C139.568 5.18382 139.71 5.2729 139.71 5.34625C139.71 5.38817 139.668 5.43533 139.584 5.48772L139.333 5.66063V6.28939H141.313L141.675 5.77066ZM141.675 12.5298C141.717 12.4774 141.774 12.4041 141.848 12.3097C141.921 12.2154 141.979 12.1473 142.021 12.1054C142.073 12.053 142.12 12.0268 142.162 12.0268C142.225 12.0268 142.372 12.1106 142.602 12.2783C142.843 12.446 143.063 12.6294 143.262 12.8285C143.472 13.0171 143.577 13.1481 143.577 13.2214C143.545 13.3891 143.414 13.4729 143.184 13.4729H139.05C139.595 13.8816 140.302 14.2327 141.172 14.5261C142.042 14.8195 142.911 15.0291 143.781 15.1549L143.765 15.3278C143.252 15.464 142.932 15.8884 142.807 16.601C142.01 16.3076 141.245 15.9146 140.512 15.4221V16.5696C140.533 17.5232 140.564 18.262 140.606 18.7859C140.543 18.8803 140.37 18.9851 140.087 19.1003C139.815 19.2156 139.563 19.2732 139.333 19.2732H139.081V18.4873H134.098V18.896C134.098 18.9379 134.046 18.9955 133.941 19.0689C133.836 19.1422 133.695 19.2051 133.517 19.2575C133.349 19.3204 133.16 19.3518 132.951 19.3518C132.836 19.3518 132.746 19.3204 132.684 19.2575C132.621 19.1946 132.589 19.1213 132.589 19.0374C132.631 18.4506 132.668 17.6542 132.699 16.6482V15.2806C131.756 15.9199 130.745 16.4124 129.666 16.7582L129.54 16.5696C130.996 15.7941 132.238 14.7619 133.265 13.4729H132.086C131.374 13.4834 130.64 13.5568 129.886 13.693L129.477 12.8913C130.053 12.9542 130.75 12.9961 131.568 13.0171H133.611C133.915 12.5874 134.156 12.1997 134.334 11.8539H133.501V12.0582C133.501 12.1316 133.365 12.2259 133.092 12.3412C132.83 12.446 132.563 12.4984 132.291 12.4984C132.207 12.4984 132.139 12.4669 132.086 12.4041C132.034 12.3412 132.008 12.2678 132.008 12.184C132.05 11.8382 132.081 11.3876 132.102 10.8322V9.99906C132.102 8.94065 132.05 8.08135 131.945 7.42115L133.595 8.12851H139.427L139.726 7.76697C139.757 7.72505 139.815 7.65694 139.899 7.56262C139.993 7.45783 140.071 7.40543 140.134 7.40543C140.197 7.40543 140.339 7.48403 140.559 7.64122C140.789 7.78793 140.999 7.95036 141.188 8.12851C141.387 8.30665 141.486 8.43241 141.486 8.50576C141.371 8.64199 141.193 8.73107 140.952 8.77298V9.85759C140.973 10.7379 141.004 11.4347 141.046 11.9482C140.994 12.053 140.826 12.1683 140.543 12.294C140.271 12.4093 140.024 12.4669 139.804 12.4669H139.553V11.8539H136.095L136.503 11.9482C136.482 12.0425 136.419 12.1159 136.315 12.1683C136.21 12.2102 136.047 12.2364 135.827 12.2469C135.723 12.3936 135.523 12.6503 135.23 13.0171H141.313L141.675 12.5298ZM139.553 9.77899V8.58436H133.501V9.77899H139.553ZM139.553 10.2191H133.501V11.398H139.553V10.2191ZM134.287 14.6361H139.003L139.254 14.3846C138.95 14.0807 138.704 13.7768 138.515 13.4729H134.821C134.507 13.8083 134.166 14.1331 133.8 14.4475L134.287 14.6361ZM134.098 16.3495H139.081V15.092H134.098V16.3495ZM134.098 16.8054V18.0314H139.081V16.8054H134.098ZM152.568 18.6288C152.442 18.6288 152.379 18.5921 152.379 18.5187C152.379 18.4663 152.406 18.4297 152.458 18.4087C152.521 18.3877 152.61 18.372 152.725 18.3615C154.36 18.0996 155.591 17.6332 156.419 16.9626C157.247 16.2919 157.661 15.4535 157.661 14.4475C157.661 13.9026 157.546 13.4625 157.315 13.1271C157.085 12.7813 156.744 12.6084 156.293 12.6084C155.79 12.6084 155.361 12.8023 155.004 13.19C154.659 13.5777 154.276 14.1646 153.857 14.9505C153.763 15.1601 153.616 15.333 153.417 15.4693C153.228 15.6055 153.05 15.6736 152.882 15.6736C152.379 15.6736 151.976 15.5216 151.672 15.2177C151.368 14.9138 151.216 14.4737 151.216 13.8974C151.216 13.4467 151.279 12.4669 151.405 10.9579C151.468 10.2034 151.499 9.81043 151.499 9.77899C151.499 9.63228 151.483 9.48557 151.452 9.33886C151.431 9.18167 151.421 9.0664 151.421 8.99305C151.421 8.7625 151.499 8.55816 151.656 8.38001C151.814 8.20186 152.065 7.99752 152.411 7.76697C152.641 7.5993 152.992 7.41591 153.464 7.21681C153.736 7.09106 153.93 6.99674 154.046 6.93387C154.161 6.86051 154.219 6.78192 154.219 6.69808C154.219 6.58281 154.119 6.4361 153.92 6.25795C153.721 6.0798 153.48 5.91214 153.197 5.75495C153.176 5.74447 153.134 5.72351 153.071 5.69207C153.008 5.65015 152.977 5.61348 152.977 5.58204C152.977 5.51916 153.144 5.48772 153.48 5.48772C153.983 5.48772 154.423 5.58204 154.8 5.77066C155.177 5.95929 155.513 6.28415 155.806 6.74524C155.932 6.92339 155.995 7.11725 155.995 7.32684C155.995 7.54691 155.916 7.74601 155.759 7.92416C155.612 8.09183 155.445 8.17566 155.256 8.17566C155.088 8.17566 154.9 8.09183 154.69 7.92416C154.522 7.81937 154.376 7.74077 154.25 7.68838C154.124 7.6255 153.967 7.59406 153.778 7.59406C153.433 7.59406 153.076 7.70933 152.709 7.93988C152.605 8.00275 152.521 8.08659 152.458 8.19138C152.395 8.2857 152.364 8.38525 152.364 8.49004C152.364 8.57388 152.416 8.72059 152.521 8.93017C152.657 9.20263 152.725 9.43318 152.725 9.6218C152.725 9.71612 152.683 10.0462 152.599 10.6121C152.463 11.5238 152.395 12.1945 152.395 12.6241C152.395 12.9071 152.427 13.1848 152.489 13.4572C152.563 13.7297 152.662 13.8659 152.788 13.8659C152.861 13.8659 152.961 13.8292 153.087 13.7559C153.223 13.6721 153.406 13.5515 153.637 13.3944C154.161 13.0171 154.648 12.7184 155.099 12.4984C155.549 12.2678 156.031 12.1526 156.545 12.1526C157.006 12.1526 157.446 12.2731 157.865 12.5141C158.295 12.7551 158.636 13.08 158.887 13.4887C159.149 13.8974 159.28 14.3532 159.28 14.8562C159.28 15.3802 159.139 15.8779 158.856 16.3495C158.583 16.8211 157.981 17.2664 157.048 17.6856C156.115 18.1048 154.758 18.4087 152.977 18.5973L152.568 18.6288ZM178.536 7.92416C178.85 7.94512 179.107 8.01323 179.306 8.12851C179.516 8.24378 179.62 8.44812 179.62 8.74154C179.62 9.12928 179.358 9.32315 178.834 9.32315C178.751 9.32315 178.394 9.28123 177.765 9.19739C177.671 9.18691 177.352 9.145 176.807 9.07164C176.272 8.99829 175.769 8.96161 175.298 8.96161C175.109 8.96161 174.826 8.97209 174.449 8.99305C174.396 9.81043 174.37 10.5649 174.37 11.2566C174.37 11.5919 174.375 11.8277 174.386 11.9639C174.616 12.3307 174.795 12.7446 174.92 13.2057C175.046 13.6563 175.109 14.1279 175.109 14.6204C175.109 15.8046 174.706 16.753 173.899 17.4656C173.092 18.1781 172.149 18.6707 171.069 18.9431C170.996 18.9641 170.943 18.9746 170.912 18.9746C170.881 18.9746 170.854 18.9641 170.833 18.9431C170.823 18.9327 170.818 18.9169 170.818 18.896C170.818 18.8331 170.865 18.7755 170.959 18.7231C171.609 18.4506 172.138 18.0996 172.547 17.6699C172.966 17.2298 173.27 16.7844 173.458 16.3338C173.647 15.8832 173.747 15.4693 173.757 15.092V14.982C173.684 15.1182 173.537 15.2492 173.317 15.3749C173.107 15.5007 172.914 15.5636 172.735 15.5636C172.222 15.5636 171.771 15.1654 171.384 14.3689C171.258 14.1069 171.153 13.824 171.069 13.5201C170.996 13.2057 170.959 12.9123 170.959 12.6398C170.959 12.1159 171.116 11.6653 171.431 11.288C171.756 10.9108 172.17 10.7221 172.673 10.7221C172.903 10.7221 173.123 10.7798 173.333 10.895C173.396 10.3292 173.432 9.74756 173.443 9.15024C172.542 9.33886 171.462 9.71612 170.205 10.282C169.754 10.523 169.345 10.6435 168.979 10.6435C168.696 10.6435 168.407 10.5597 168.114 10.392C167.884 10.2558 167.616 10.02 167.312 9.68468C167.019 9.34934 166.872 9.12404 166.872 9.00877C166.872 8.95637 166.909 8.93017 166.982 8.93017C167.035 8.93017 167.113 8.94589 167.218 8.97733C167.333 8.99829 167.428 9.01925 167.501 9.0402C167.92 9.12404 168.292 9.16596 168.617 9.16596C169.026 9.16596 169.393 9.12404 169.717 9.0402C170.786 8.82014 172.028 8.60007 173.443 8.38001C173.422 7.75125 173.39 7.28492 173.348 6.98102C173.317 6.69808 173.244 6.44658 173.128 6.22651C173.013 6.00645 172.877 5.84926 172.72 5.75495C172.667 5.72351 172.594 5.68159 172.5 5.62919C172.416 5.5768 172.374 5.52964 172.374 5.48772C172.374 5.41437 172.452 5.34625 172.61 5.28338C172.767 5.2205 172.914 5.18906 173.05 5.18906C173.259 5.18906 173.485 5.23098 173.726 5.31482C174.428 5.53488 174.779 5.89118 174.779 6.3837C174.779 6.45706 174.747 6.60901 174.685 6.83955C175.271 7.13297 175.743 7.35304 176.099 7.49975C176.456 7.64646 176.838 7.74077 177.247 7.78269C177.561 7.85604 177.876 7.89272 178.19 7.89272L178.536 7.92416ZM175.313 8.12851C175.366 8.12851 175.439 8.12851 175.533 8.12851C175.638 8.11803 175.712 8.10755 175.753 8.09707C175.806 8.08659 175.832 8.06563 175.832 8.03419C175.832 7.99228 175.795 7.95036 175.722 7.90844C175.649 7.85604 175.602 7.82461 175.581 7.81413L174.59 7.18537V7.21681L174.496 8.22282C174.81 8.1809 175.083 8.14946 175.313 8.12851ZM172.594 14.1803C172.845 14.1803 173.039 14.065 173.176 13.8345C173.312 13.6039 173.38 13.3105 173.38 12.9542C173.38 12.5665 173.28 12.1892 173.081 11.8225C172.893 11.4452 172.646 11.2566 172.342 11.2566C172.07 11.2566 171.85 11.398 171.682 11.681C171.515 11.9534 171.431 12.2573 171.431 12.5927C171.431 12.8127 171.483 13.0485 171.588 13.3C171.703 13.5515 171.85 13.7611 172.028 13.9288C172.206 14.0965 172.395 14.1803 172.594 14.1803ZM187.228 19.1946C186.809 19.1946 186.416 19.0898 186.049 18.8803C185.693 18.6707 185.405 18.3825 185.185 18.0157C184.975 17.6594 184.87 17.2664 184.87 16.8368C184.87 16.4176 184.975 16.0299 185.185 15.6736C185.405 15.3068 185.693 15.0186 186.049 14.8091C186.416 14.5995 186.809 14.4947 187.228 14.4947C187.647 14.4947 188.035 14.5995 188.391 14.8091C188.748 15.0186 189.031 15.3068 189.24 15.6736C189.45 16.0299 189.555 16.4176 189.555 16.8368C189.555 17.2664 189.45 17.6594 189.24 18.0157C189.031 18.3825 188.748 18.6707 188.391 18.8803C188.035 19.0898 187.647 19.1946 187.228 19.1946ZM187.228 18.5816C187.7 18.5816 188.103 18.4087 188.439 18.0629C188.784 17.7275 188.957 17.3188 188.957 16.8368C188.957 16.3548 188.784 15.9461 188.439 15.6107C188.103 15.2754 187.7 15.1077 187.228 15.1077C186.736 15.1077 186.317 15.2754 185.971 15.6107C185.635 15.9461 185.468 16.3548 185.468 16.8368C185.468 17.3188 185.635 17.7275 185.971 18.0629C186.317 18.4087 186.736 18.5816 187.228 18.5816Z" fill="#447065"/>
<defs>
<clipPath id="clip0_18_223">
<rect width="187" height="36" fill="white" transform="translate(2 27.8174)"/>
</clipPath>
</defs>
</svg>
