<svg xmlns="http://www.w3.org/2000/svg" width="831.186" height="101.106" viewBox="0 0 831.186 101.106">
  <g id="logo_more" transform="translate(-0.7 -0.6)">
    <g id="design" transform="translate(0.7 0.6)">
      <g id="グループ_3" data-name="グループ 3" transform="translate(371.506)">
        <g id="グループ_1" data-name="グループ 1" transform="translate(203.388 34.682)">
          <path id="パス_5" data-name="パス 5" d="M191.377,68.81h-7.642V34.128c0-12.344-5.29-20.574-17.047-20.574s-18.223,8.23-18.223,17.047V68.222h-7.642V31.189c0-10.581-5.29-18.223-15.871-18.223a18.447,18.447,0,0,0-18.81,18.223V67.634H98.5V8.263h7.054v9.993h.588C110.256,11.79,116.723,6.5,127.891,6.5s15.871,5.29,18.81,12.344h0C150.229,12.966,156.695,6.5,169.627,6.5s21.75,3.527,21.75,25.277V68.81Z" transform="translate(-98.5 -6.5)" fill="#86be24"/>
          <path id="パス_6" data-name="パス 6" d="M178.5,37.267c0,22.337-17.047,31.743-31.743,31.743S115.6,57.253,115.6,38.443,130.3,6.7,147.343,6.7,178.5,19.044,178.5,37.267ZM146.755,12.578c-16.459,0-23.513,13.52-23.513,25.864s9.993,25.277,23.513,25.277,23.513-11.169,23.513-25.864S163.8,12.578,146.755,12.578Z" transform="translate(-15.082 -5.524)" fill="#86be24"/>
          <path id="パス_7" data-name="パス 7" d="M156.7,13.266h-3.527c-11.169,0-17.635,10.581-17.635,21.162V67.346H127.9V7.976h7.054V19.732h.588c2.939-7.054,9.993-12.932,18.81-12.932h2.939v6.466Z" transform="translate(44.921 -5.037)" fill="#86be24"/>
          <path id="パス_8" data-name="パス 8" d="M185.4,65.383c-2.939,1.176-9.993,3.527-21.162,3.527-19.4,0-31.743-12.344-31.743-29.979S144.844,6.6,162.479,6.6s26.452,17.635,26.452,27.04v4.115h-48.79c0,18.223,11.757,25.277,24.689,25.277s14.108-1.763,18.223-3.527l1.763,5.29Zm-4.115-32.33c0-8.23-4.115-19.986-19.4-19.986S141.905,24.235,140.73,33.052h40.56Z" transform="translate(67.361 -6.012)" fill="#86be24"/>
        </g>
        <g id="グループ_2" data-name="グループ 2">
          <path id="パス_9" data-name="パス 9" d="M113.865,17.059c-2.939-1.763-9.405-4.115-17.047-4.115-11.169,0-16.459,6.466-16.459,12.932s5.29,12.344,17.635,17.635c15.283,7.054,22.925,15.283,22.925,28.216S109.163,99.943,87.413,99.943,68.6,97.591,63.9,94.064L67.427,81.72C72.717,84.659,80.359,87.6,88,87.6c11.169,0,17.635-5.878,17.635-14.7s-4.7-12.932-16.459-18.223c-14.108-5.878-24.1-14.7-24.1-27.628S77.42.6,96.23.6,112.1,2.951,116.217,4.715L112.69,17.059Z" transform="translate(-63.9 -0.6)" fill="#447065"/>
          <path id="パス_10" data-name="パス 10" d="M145.651,87.847h-14.7a97.889,97.889,0,0,1-7.054-7.642,31.959,31.959,0,0,1-22.925,8.817C84.517,89.023,75.7,77.854,75.7,65.51s5.878-18.81,15.283-24.1h0a29.655,29.655,0,0,1-6.466-17.635c0-10.581,7.054-20.574,21.162-20.574s18.81,7.054,18.81,18.223-4.7,15.871-17.047,22.337h0c5.878,7.054,12.344,15.871,17.635,21.75,3.527-5.878,5.878-14.108,7.054-22.925H143.3c-1.763,12.344-5.29,23.513-11.757,31.155l13.52,15.283ZM118.024,72.563c-5.29-5.878-13.52-15.283-21.162-24.689-4.115,2.939-8.817,7.642-8.817,15.283S93.923,79.03,103.328,79.03,115.672,74.915,118.024,72.563ZM96.274,22.6c0,5.29,2.351,9.993,5.878,14.108,7.642-4.7,11.757-8.817,11.757-15.283s-2.351-9.993-8.817-9.993S96.274,16.72,96.274,22.6Z" transform="translate(-6.337 12.083)" fill="#447065"/>
          <path id="パス_11" data-name="パス 11" d="M152.624,13.144H126.76V96.616h-14.7V13.144H86.2V.8h66.424V13.144Z" transform="translate(44.885 0.376)" fill="#447065"/>
        </g>
      </g>
      <text id="グループ会社" transform="translate(0 70.986)" font-size="58" font-family="YuGothicUI-Bold, Yu Gothic UI" font-weight="700"><tspan x="0" y="0">グループ会社</tspan></text>
    </g>
  </g>
</svg>
